<svg version="1.1" id="Layer_1" xmlns="http://www.w3.org/2000/svg" xmlns:xlink="http://www.w3.org/1999/xlink" x="0px" y="0px"
	 width="100%" viewBox="0 0 232 178" enable-background="new 0 0 232 178" xml:space="preserve">
<path fill="#000000" opacity="1.000000" stroke="none" 
	d="
M156.000000,179.000000 
	C104.000000,179.000000 52.500008,179.000000 1.000007,179.000000 
	C1.000005,119.666672 1.000005,60.333347 1.000002,1.000015 
	C78.333321,1.000010 155.666641,1.000010 232.999969,1.000005 
	C232.999985,60.333317 232.999985,119.666634 233.000000,178.999969 
	C207.500000,179.000000 182.000000,179.000000 156.000000,179.000000 
M144.904709,46.281540 
	C142.282104,41.843044 139.659485,37.404549 136.906464,32.259155 
	C134.244568,27.916237 131.582672,23.573317 128.367065,18.846094 
	C127.799934,17.931866 127.232796,17.017639 126.393593,15.664822 
	C125.069397,18.061317 124.000870,19.995119 122.320213,22.222574 
	C114.205452,36.482250 106.090691,50.741924 97.371094,65.296799 
	C96.310982,67.453926 95.250870,69.611046 94.048820,72.479233 
	C94.004021,72.716736 93.959221,72.954247 93.209267,73.150574 
	C91.775764,75.755257 90.342255,78.359940 88.276100,81.255974 
	C85.521912,86.303917 82.767715,91.351852 79.607513,96.871361 
	C69.018486,115.396027 58.429462,133.920700 47.529213,152.989822 
	C49.472607,152.897202 50.759392,152.835861 52.664215,152.948044 
	C53.083881,152.890472 53.503548,152.832901 54.764725,152.903183 
	C65.263184,152.862656 75.761650,152.822113 87.161972,152.887665 
	C87.459373,152.831329 87.756783,152.774994 88.918472,152.957108 
	C91.609169,153.045853 94.299873,153.134598 97.630951,153.625885 
	C100.090462,153.505783 102.549973,153.385681 105.786224,153.010330 
	C106.876511,153.014648 107.966805,153.018982 109.687576,153.544464 
	C129.115051,153.301300 148.542542,153.058136 168.900482,152.965210 
	C180.914261,152.965210 192.928024,152.965210 206.055557,152.965210 
	C200.941406,144.215988 196.471893,136.569580 191.901306,128.265793 
	C190.915558,126.804489 189.929825,125.343193 188.870087,123.533775 
	C188.870087,123.533775 188.730087,123.206573 188.678940,122.530655 
	C187.771103,121.313377 186.863266,120.096100 185.868195,118.518448 
	C185.868195,118.518448 185.735046,118.172379 185.739090,117.648636 
	C185.486938,117.425217 185.234787,117.201797 184.974731,117.017662 
	C184.974731,117.017662 185.014786,117.017242 184.924759,116.296783 
	C182.300156,111.861374 179.675568,107.425964 176.896637,102.343552 
	C175.634079,100.606697 174.371521,98.869843 172.533981,96.494057 
	C169.223480,92.624130 173.350708,91.955490 176.754837,89.793648 
	C173.730316,89.523521 172.189087,89.385864 170.050705,88.922142 
	C167.036057,84.269379 164.021393,79.616608 160.871628,74.262901 
	C157.089645,67.662575 153.307663,61.062252 149.207733,53.864532 
	C147.818893,51.571762 146.430069,49.278992 144.904709,46.281540 
M173.664978,94.114693 
	C173.880997,94.076309 174.097031,94.037926 174.313049,93.999535 
	C174.100143,93.948105 173.887253,93.896667 173.664978,94.114693 
z"/>
<path fill="#020B13" opacity="1.000000" stroke="none" 
	d="
M105.009483,153.265594 
	C102.549973,153.385681 100.090462,153.505783 97.688019,153.353943 
	C97.422272,150.388153 97.099449,147.694321 96.779694,144.595917 
	C96.099953,137.882919 95.417160,131.574478 94.838707,124.790771 
	C94.683563,116.898590 94.424088,109.481651 94.122955,101.593628 
	C94.025673,91.812286 93.970047,82.502022 93.914421,73.191765 
	C93.959221,72.954247 94.004021,72.716736 94.468826,72.145355 
	C95.564720,71.963486 96.240601,72.115494 96.905846,72.718353 
	C96.935844,77.992180 96.904167,82.817085 97.033585,87.637680 
	C97.242554,95.421486 97.557549,103.202431 97.866615,111.318504 
	C97.877350,112.098892 97.849236,112.545364 97.672684,113.256973 
	C97.624390,114.685455 97.724541,115.848801 97.866745,117.458572 
	C98.065315,120.587494 98.221825,123.269974 98.323914,126.387947 
	C98.543869,129.836685 98.818260,132.849945 99.092651,135.863205 
	C99.596611,135.842636 100.100563,135.822083 100.604523,135.801529 
	C101.270020,134.509354 101.995590,133.243256 102.573433,131.913010 
	C102.828400,131.326050 102.814095,130.611465 102.870308,129.950424 
	C104.227165,113.993607 107.212837,98.396416 113.355087,83.253113 
	C114.824638,80.795830 116.055710,78.527092 117.225006,76.206223 
	C117.163223,76.154091 117.062653,76.280663 117.337479,76.175873 
	C117.778076,75.725990 117.943848,75.380905 118.397415,74.877289 
	C120.419411,73.946510 122.153610,73.174271 124.039986,72.599258 
	C124.691345,73.223366 125.190536,73.650230 125.781097,74.480309 
	C126.272148,78.182617 126.671822,81.481705 127.042130,85.265656 
	C127.290924,92.147934 127.569077,98.545357 127.933266,105.355957 
	C128.458099,108.790840 128.896881,111.812531 129.335678,114.834229 
	C129.725113,114.862373 130.114563,114.890518 130.503998,114.918671 
	C131.702576,112.272339 132.901169,109.626015 134.276978,106.736572 
	C134.606476,105.917946 134.758743,105.342422 134.922256,104.406616 
	C135.677963,101.764488 136.422409,99.482635 137.368073,97.154953 
	C137.569305,97.109116 137.947998,96.940872 138.150314,96.705994 
	C138.529572,95.884026 138.706512,95.296928 138.900421,94.504227 
	C138.917374,94.298615 139.158691,93.963913 139.317535,93.775841 
	C139.670334,93.318100 139.812271,93.023376 139.931763,92.495682 
	C139.961349,92.287766 140.224167,91.960121 140.375931,91.805992 
	C140.716171,91.429840 140.864960,91.183807 141.021469,90.690948 
	C141.210205,90.171295 141.441574,89.988388 141.995605,89.793747 
	C142.488998,89.432411 142.749817,89.196739 143.091980,88.871178 
	C143.173325,88.781281 143.401627,88.862976 143.904373,88.885323 
	C145.407364,88.889473 146.407593,88.871277 147.582962,88.864670 
	C147.758087,88.876266 148.017410,89.112846 148.137726,89.295387 
	C148.435699,89.710922 148.638412,89.919586 149.008804,90.271271 
	C149.353668,90.652298 149.578217,90.839172 149.932068,90.987839 
	C150.039032,90.976456 150.254211,90.976547 150.201721,91.182419 
	C150.149246,91.388290 150.116379,91.811935 150.037262,92.132851 
	C149.309128,93.301712 148.660110,94.149658 147.769897,94.805450 
	C145.701508,91.401070 144.255249,92.105812 142.803345,95.277359 
	C142.237534,96.037926 141.895248,96.572212 141.440063,97.232796 
	C141.189590,97.541733 141.083832,97.741257 140.984894,98.239716 
	C140.885498,98.695282 140.811096,98.868790 140.596649,99.230515 
	C140.287491,99.686005 140.167084,99.973656 140.053314,100.641724 
	C138.529953,105.029076 137.048645,109.056389 135.449036,113.235527 
	C135.190170,113.605812 135.090988,113.841667 135.028473,114.419144 
	C134.886673,115.376656 134.749588,116.009956 134.400238,116.847168 
	C133.656342,117.873123 133.124710,118.695160 132.347809,119.621307 
	C131.765488,119.829529 131.428452,119.933655 130.782379,119.920502 
	C129.067047,118.864243 127.660774,117.925262 126.113808,116.709778 
	C125.957977,115.828300 125.942841,115.223320 125.856369,114.343781 
	C125.625259,113.728645 125.465469,113.388069 125.180244,112.680222 
	C125.003159,111.027611 124.951515,109.742256 124.925949,107.970253 
	C124.695778,103.999077 124.439529,100.514557 124.108643,96.570389 
	C123.985352,91.612053 123.936699,87.113365 123.900612,82.238144 
	C123.665184,80.916512 123.417198,79.971405 123.008545,78.683517 
	C121.901024,78.780983 120.444099,78.973442 120.090309,79.701759 
	C117.831024,84.352776 115.814461,89.121689 113.773651,93.859200 
	C113.829277,93.866600 113.838203,93.754715 113.600670,93.876549 
	C113.294472,94.330978 113.225800,94.663582 113.051834,95.384499 
	C111.571854,102.309074 110.197174,108.845329 108.582916,115.725449 
	C108.058517,118.721436 107.773689,121.373573 107.375504,124.336685 
	C107.252808,125.086861 107.243477,125.526054 107.125381,126.384720 
	C106.301857,133.514954 105.587082,140.225723 104.778229,147.190567 
	C104.699303,147.624634 104.714455,147.804611 104.626045,148.051910 
	C104.522484,148.119263 104.594994,148.355469 104.398712,148.649445 
	C104.471451,150.384140 104.740471,151.824860 105.009483,153.265594 
z"/>
<path fill="#44A7CD" opacity="1.000000" stroke="none" 
	d="
M113.116600,83.441650 
	C107.212837,98.396416 104.227165,113.993607 102.870308,129.950424 
	C102.814095,130.611465 102.828400,131.326050 102.573433,131.913010 
	C101.995590,133.243256 101.270020,134.509354 100.604523,135.801529 
	C100.100563,135.822083 99.596611,135.842636 99.092651,135.863205 
	C98.818260,132.849945 98.543869,129.836685 98.475739,126.009895 
	C98.797150,123.394661 98.987648,121.594078 99.014214,119.791069 
	C99.120964,112.545815 99.334755,105.296768 99.195244,98.055168 
	C99.105011,93.371887 98.470375,88.699097 98.009369,83.639664 
	C97.977562,82.485626 98.016083,81.713531 98.251114,80.654297 
	C98.317734,78.609489 98.187843,76.851837 97.983437,74.785187 
	C97.578110,73.739975 97.247299,73.003738 96.916489,72.267502 
	C96.240601,72.115494 95.564720,71.963486 94.539795,71.789825 
	C95.250870,69.611046 96.310982,67.453926 98.000229,65.050461 
	C99.840439,63.303970 101.123230,61.855381 102.246735,60.292297 
	C104.214302,57.554890 106.084114,54.747215 108.151749,52.226311 
	C108.818466,56.212135 109.328316,59.940632 109.660362,62.368858 
	C108.457733,64.645355 107.232582,65.973877 107.101089,67.403015 
	C106.737137,71.358978 107.854652,75.761299 106.483955,79.236801 
	C104.735626,83.669777 106.578873,85.463799 110.087914,88.279846 
	C109.458908,85.629150 109.042946,83.876236 108.367393,81.029381 
	C110.631989,82.179642 111.874298,82.810646 113.116600,83.441650 
z"/>
<path fill="#1868B7" opacity="1.000000" stroke="none" 
	d="
M173.108963,97.132988 
	C174.371521,98.869843 175.634079,100.606697 176.868713,102.659103 
	C176.840805,102.974648 176.640533,103.040466 176.373993,103.120361 
	C172.700745,105.539993 176.082550,106.509064 177.079742,107.936737 
	C177.090591,107.911667 177.144913,107.903801 177.048019,108.233139 
	C177.119614,114.272713 177.227692,119.986511 177.564774,125.686775 
	C177.593506,126.172646 179.148132,126.568298 179.930603,127.282700 
	C179.580383,128.041473 179.293442,128.523407 178.702484,129.133072 
	C178.505035,130.795120 178.652328,132.327972 178.707031,133.864136 
	C178.765030,135.493164 179.398605,137.593857 178.633026,138.678116 
	C174.474747,144.567215 175.367661,148.276779 181.668549,151.220200 
	C177.211517,151.601212 173.106277,151.771652 168.964767,151.528992 
	C168.928482,138.340454 168.928482,125.565056 168.928482,112.715668 
	C166.711060,112.715668 165.736694,112.715668 164.961227,112.447021 
	C167.809738,107.163254 170.459351,102.148125 173.108963,97.132988 
z"/>
<path fill="#4FBAD7" opacity="1.000000" stroke="none" 
	d="
M80.013535,96.399796 
	C82.767715,91.351852 85.521912,86.303917 88.803467,81.381081 
	C87.492989,86.998474 88.446556,91.994766 91.986351,96.539917 
	C92.066742,96.643143 92.004852,96.857185 91.660622,96.981766 
	C89.532730,95.616058 87.753548,94.288116 84.999527,92.232582 
	C85.440117,94.235352 85.615898,95.370926 85.945297,96.460045 
	C86.585793,98.577736 87.832069,100.654846 87.891281,102.774918 
	C88.001945,106.736809 87.161766,110.722527 87.234138,114.688896 
	C87.331207,120.008347 85.219742,125.672661 89.313835,130.530579 
	C89.680359,130.965469 89.547279,132.270142 89.155899,132.825058 
	C85.573181,137.904785 86.689751,143.093353 88.392189,148.439133 
	C88.794273,149.701691 88.193588,151.283630 88.054184,152.718643 
	C87.756783,152.774994 87.459373,152.831329 86.591568,152.743713 
	C85.880310,152.452072 85.767601,152.285339 85.490868,151.836990 
	C80.581512,147.180405 80.471390,141.807724 81.791901,136.004623 
	C82.329376,133.642670 83.401070,130.482788 82.376503,128.845978 
	C78.207199,122.185333 80.703880,115.672531 81.548721,108.993942 
	C81.785515,107.122078 83.248077,102.541237 77.970673,104.625458 
	C78.679771,101.648933 79.346649,99.024368 80.013535,96.399796 
z"/>
<path fill="#49B1D1" opacity="1.000000" stroke="none" 
	d="
M88.486328,152.837875 
	C88.193588,151.283630 88.794273,149.701691 88.392189,148.439133 
	C86.689751,143.093353 85.573181,137.904785 89.155899,132.825058 
	C89.547279,132.270142 89.680359,130.965469 89.313835,130.530579 
	C85.219742,125.672661 87.331207,120.008347 87.234138,114.688896 
	C87.161766,110.722527 88.001945,106.736809 87.891281,102.774918 
	C87.832069,100.654846 86.585793,98.577736 85.945297,96.460045 
	C85.615898,95.370926 85.440117,94.235352 84.999527,92.232582 
	C87.753548,94.288116 89.532730,95.616058 91.661377,97.447891 
	C92.709953,110.930305 93.283325,123.917801 94.209106,136.880142 
	C94.405785,139.633987 95.887154,142.296097 96.776634,145.000473 
	C97.099449,147.694321 97.422272,150.388153 97.367828,153.152679 
	C94.299873,153.134598 91.609169,153.045853 88.486328,152.837875 
M94.499352,151.471985 
	C94.499352,151.471985 94.514282,151.510391 94.499352,151.471985 
z"/>
<path fill="#62CBDE" opacity="1.000000" stroke="none" 
	d="
M79.810524,96.635574 
	C79.346649,99.024368 78.679771,101.648933 77.703003,104.823013 
	C74.585358,110.904472 71.777611,116.436424 68.683090,122.157898 
	C63.565041,126.355942 59.064796,140.526443 60.923138,146.260849 
	C61.245960,147.257004 62.217503,148.038437 62.869404,148.933624 
	C63.597301,149.933182 64.302383,150.949341 64.813309,152.031067 
	C64.470085,152.330399 64.330963,152.556946 64.191833,152.783478 
	C64.587852,152.835602 64.983871,152.887726 65.631668,152.943176 
	C66.219147,152.941650 66.554840,152.936813 67.251984,153.085831 
	C68.772751,152.830688 69.932076,152.421707 71.467728,151.929810 
	C76.457054,151.931137 81.070053,152.015350 85.683044,152.099579 
	C85.767601,152.285339 85.880310,152.452072 86.140640,152.690674 
	C75.761650,152.822113 65.263184,152.862656 54.178577,152.708435 
	C53.077011,152.600647 52.561592,152.687592 52.046173,152.774536 
	C50.759392,152.835861 49.472607,152.897202 47.529213,152.989822 
	C58.429462,133.920700 69.018486,115.396027 79.810524,96.635574 
z"/>
<path fill="#0B59B3" opacity="1.000000" stroke="none" 
	d="
M179.006500,129.005341 
	C179.293442,128.523407 179.580383,128.041473 180.289978,127.255722 
	C182.467880,125.302620 184.223129,123.653343 186.210205,122.201004 
	C187.204712,122.667488 187.967392,122.937027 188.730087,123.206573 
	C188.730087,123.206573 188.870087,123.533775 188.901352,124.099403 
	C188.988419,125.440788 189.044220,126.216537 188.867859,127.055054 
	C188.378510,127.445686 188.121307,127.773560 187.864090,128.101425 
	C188.577682,128.057938 189.291290,128.014450 190.004272,127.979462 
	C190.003677,127.987976 190.023697,127.992752 190.028503,128.372452 
	C190.506561,130.116394 190.798355,131.580780 191.485947,132.826721 
	C193.853180,137.116196 196.471130,141.270401 198.745361,145.606308 
	C199.457642,146.964310 199.386063,148.733444 199.621368,150.028595 
	C194.575012,150.028595 190.301636,150.028595 185.823639,149.792450 
	C185.317017,148.674377 184.485367,147.340378 184.793564,146.979309 
	C188.572296,142.552231 184.700577,139.289291 183.120850,135.794510 
	C182.038742,133.400650 180.397690,131.259476 179.006500,129.005341 
z"/>
<path fill="#030D1B" opacity="1.000000" stroke="none" 
	d="
M172.821472,96.813522 
	C170.459351,102.148125 167.809738,107.163254 164.573608,112.485138 
	C162.713074,112.837578 161.439041,112.883263 159.920441,112.693375 
	C156.426559,108.305954 153.177292,104.154099 149.880219,99.667374 
	C149.225311,97.887535 148.618210,96.442574 148.011108,94.997604 
	C148.660110,94.149658 149.309128,93.301712 150.310089,92.352478 
	C152.046402,95.014000 153.209763,97.919395 154.875275,100.500801 
	C156.657349,103.262901 158.912659,105.719666 161.213959,108.496323 
	C165.797775,108.085625 166.264008,104.527832 167.371033,101.018173 
	C167.794586,99.846619 167.983231,98.937820 168.136444,98.043121 
	C168.101028,98.057220 168.132202,98.126801 168.367493,97.884750 
	C168.789078,96.772430 168.975357,95.902153 169.130966,95.053421 
	C169.100281,95.074974 169.153458,95.127922 169.387939,94.872009 
	C169.964249,92.826805 170.306076,91.037514 170.647888,89.248215 
	C172.189087,89.385864 173.730316,89.523521 176.754837,89.793648 
	C173.350708,91.955490 169.223480,92.624130 172.821472,96.813522 
z"/>
<path fill="#4EABC8" opacity="1.000000" stroke="none" 
	d="
M96.779694,144.595917 
	C95.887154,142.296097 94.405785,139.633987 94.209106,136.880142 
	C93.283325,123.917801 92.709953,110.930305 92.010086,97.485657 
	C92.004852,96.857185 92.066742,96.643143 91.986351,96.539917 
	C88.446556,91.994766 87.492989,86.998474 89.119789,81.235405 
	C90.342255,78.359940 91.775764,75.755257 93.561844,73.171173 
	C93.970047,82.502022 94.025673,91.812286 94.039467,102.046967 
	C94.243210,110.402939 94.488785,117.834480 94.734367,125.266029 
	C95.417160,131.574478 96.099953,137.882919 96.779694,144.595917 
z"/>
<path fill="#244EA2" opacity="1.000000" stroke="none" 
	d="
M186.028275,150.028595 
	C190.301636,150.028595 194.575012,150.028595 199.621368,150.028595 
	C199.386063,148.733444 199.457642,146.964310 198.745361,145.606308 
	C196.471130,141.270401 193.853180,137.116196 191.485947,132.826721 
	C190.798355,131.580780 190.506561,130.116394 190.273499,128.495346 
	C191.009903,128.466751 191.506134,128.694962 192.002380,128.923172 
	C196.471893,136.569580 200.941406,144.215988 206.055557,152.965210 
	C192.928024,152.965210 180.914261,152.965210 168.438293,152.684769 
	C167.976120,152.404327 167.985855,151.993729 168.239929,151.984741 
	C168.663040,151.964554 168.832047,151.953323 169.001053,151.942108 
	C173.106277,151.771652 177.211517,151.601212 182.022583,151.219833 
	C183.828369,150.682129 184.928314,150.355347 186.028275,150.028595 
z"/>
<path fill="#1061B6" opacity="1.000000" stroke="none" 
	d="
M185.978394,122.004066 
	C184.223129,123.653343 182.467880,125.302620 180.353256,126.978882 
	C179.148132,126.568298 177.593506,126.172646 177.564774,125.686775 
	C177.227692,119.986511 177.119614,114.272713 177.357697,108.359116 
	C179.006958,109.803307 180.204453,111.487610 181.506073,113.087189 
	C182.613342,114.447899 183.840622,115.710968 185.014786,117.017242 
	C185.014786,117.017242 184.974731,117.017662 185.053665,117.225082 
	C185.277298,117.724808 185.478119,117.971428 185.735046,118.172379 
	C185.735046,118.172379 185.868195,118.518448 185.909393,119.091141 
	C185.959854,120.443909 185.969131,121.223991 185.978394,122.004066 
z"/>
<path fill="#4A96C4" opacity="1.000000" stroke="none" 
	d="
M107.994888,51.968979 
	C106.084114,54.747215 104.214302,57.554890 102.246735,60.292297 
	C101.123230,61.855381 99.840439,63.303970 98.302650,64.902863 
	C106.090691,50.741924 114.205452,36.482250 122.665649,22.116064 
	C123.011086,22.009554 123.089943,22.090076 123.042816,22.438892 
	C122.346718,24.524364 121.697746,26.261023 120.877258,28.313519 
	C118.805275,32.414162 116.904816,36.198967 114.687950,40.109467 
	C112.245987,44.146431 110.120438,48.057705 107.994888,51.968979 
z"/>
<path fill="#346FAB" opacity="1.000000" stroke="none" 
	d="
M167.985855,151.993729 
	C167.985855,151.993729 167.976120,152.404327 167.973068,152.609650 
	C148.542542,153.058136 129.115051,153.301300 109.769623,153.200226 
	C110.925728,152.704361 111.999786,152.552734 113.452484,152.464813 
	C114.848343,152.480469 115.865562,152.432419 117.309418,152.475174 
	C120.156425,152.367325 122.576805,152.168671 125.425781,151.974991 
	C127.569359,151.961700 129.284332,151.943451 131.454880,151.942993 
	C135.625809,151.667084 139.341156,151.373352 143.489471,151.072433 
	C145.956573,151.054276 147.990707,151.043320 150.476349,151.033844 
	C153.953827,151.028900 156.979782,151.022461 160.370972,151.169998 
	C163.152756,151.547226 165.569305,151.770477 167.985855,151.993729 
z"/>
<path fill="#346FAB" opacity="1.000000" stroke="none" 
	d="
M149.525681,54.461929 
	C153.307663,61.062252 157.089645,67.662575 160.903656,74.901443 
	C160.915787,75.732399 160.895889,75.924812 160.568024,76.073120 
	C159.844330,76.003128 159.428619,75.977249 158.939972,75.595245 
	C158.055923,73.457390 157.298416,71.648865 156.423431,69.899071 
	C153.943893,64.940460 151.416306,60.005878 149.065765,54.915588 
	C149.223892,54.769333 149.525681,54.461926 149.525681,54.461929 
z"/>
<path fill="#2F5DA3" opacity="1.000000" stroke="none" 
	d="
M160.875977,76.117226 
	C160.895889,75.924812 160.915787,75.732399 160.971222,75.251915 
	C164.021393,79.616608 167.036057,84.269379 170.349304,89.085175 
	C170.306076,91.037514 169.964249,92.826805 169.335510,94.469833 
	C167.379944,91.195099 165.711288,88.066635 164.026581,84.569641 
	C162.965683,81.506485 161.920822,78.811852 160.875977,76.117226 
z"/>
<path fill="#436EA9" opacity="1.000000" stroke="none" 
	d="
M128.920761,19.230396 
	C131.582672,23.573317 134.244568,27.916237 136.885437,32.696739 
	C136.864410,33.134319 136.692032,33.302677 136.379333,33.172707 
	C134.420929,30.660208 132.775223,28.277678 131.044525,25.571888 
	C130.300171,23.860485 129.640793,22.472340 128.970215,20.775291 
	C128.946259,20.054394 128.933502,19.642395 128.920761,19.230396 
z"/>
<path fill="#314892" opacity="1.000000" stroke="none" 
	d="
M184.969772,116.657013 
	C183.840622,115.710968 182.613342,114.447899 181.506073,113.087189 
	C180.204453,111.487610 179.006958,109.803307 177.454590,108.029778 
	C177.144913,107.903801 177.090591,107.911667 177.092926,107.523743 
	C176.943680,105.770699 176.792114,104.405586 176.640533,103.040466 
	C176.640533,103.040466 176.840805,102.974648 176.945892,102.982605 
	C179.675568,107.425964 182.300156,111.861374 184.969772,116.657013 
z"/>
<path fill="#436EA9" opacity="1.000000" stroke="none" 
	d="
M136.950653,33.050186 
	C139.659485,37.404549 142.282104,41.843044 144.885437,46.701637 
	C144.866165,47.121735 144.697433,47.265064 144.441483,47.078705 
	C142.803299,45.254559 141.421082,43.616768 139.901550,41.684502 
	C139.202332,40.231430 138.640427,39.072834 138.003876,37.575951 
	C137.516830,35.926003 137.104431,34.614338 136.692032,33.302677 
	C136.692032,33.302677 136.864410,33.134319 136.950653,33.050186 
z"/>
<path fill="#4A96C4" opacity="1.000000" stroke="none" 
	d="
M113.073853,152.401093 
	C111.999786,152.552734 110.925728,152.704361 109.454376,152.939667 
	C107.966805,153.018982 106.876511,153.014648 105.397858,153.137970 
	C104.740471,151.824860 104.471451,150.384140 104.527267,148.997345 
	C106.057877,149.704422 107.216965,150.474213 108.481590,150.980286 
	C109.964417,151.573639 111.539047,151.937622 113.073853,152.401093 
z"/>
<path fill="#4A96C4" opacity="1.000000" stroke="none" 
	d="
M128.643921,19.038246 
	C128.933502,19.642395 128.946259,20.054394 128.594910,20.772844 
	C126.517174,21.416224 124.803558,21.753149 123.089943,22.090076 
	C123.089943,22.090076 123.011086,22.009554 122.971710,21.969238 
	C124.000870,19.995119 125.069397,18.061317 126.393593,15.664822 
	C127.232796,17.017639 127.799934,17.931866 128.643921,19.038246 
z"/>
<path fill="#346FAB" opacity="1.000000" stroke="none" 
	d="
M144.953705,47.053978 
	C146.430069,49.278992 147.818893,51.571762 149.366699,54.163231 
	C149.525681,54.461926 149.223892,54.769333 148.899231,54.745327 
	C148.355652,54.489719 148.146866,54.249332 147.779388,53.707466 
	C146.639526,51.364872 145.668488,49.314968 144.697433,47.265064 
	C144.697433,47.265064 144.866165,47.121735 144.953705,47.053978 
z"/>
<path fill="#314892" opacity="1.000000" stroke="none" 
	d="
M186.210205,122.201004 
	C185.969131,121.223991 185.959854,120.443909 185.953003,119.271332 
	C186.863266,120.096100 187.771103,121.313377 188.704514,122.868614 
	C187.967392,122.937027 187.204712,122.667488 186.210205,122.201004 
z"/>
<path fill="#314892" opacity="1.000000" stroke="none" 
	d="
M191.951843,128.594482 
	C191.506134,128.694962 191.009903,128.466751 190.268677,128.115646 
	C190.023697,127.992752 190.003677,127.987976 189.874313,127.797676 
	C189.555664,127.375389 189.340698,127.170364 189.100021,126.992294 
	C189.044220,126.216537 188.988419,125.440788 188.938354,124.273460 
	C189.929825,125.343193 190.915558,126.804489 191.951843,128.594482 
z"/>
<path fill="#030D1B" opacity="1.000000" stroke="none" 
	d="
M173.669662,93.979965 
	C173.887253,93.896667 174.100143,93.948105 174.313049,93.999535 
	C174.097031,94.037926 173.880997,94.076309 173.669662,93.979965 
z"/>
<path fill="#49B1D1" opacity="1.000000" stroke="none" 
	d="
M52.355194,152.861298 
	C52.561592,152.687592 53.077011,152.600647 53.757820,152.644501 
	C53.503548,152.832901 53.083881,152.890472 52.355194,152.861298 
z"/>
<path fill="#314892" opacity="1.000000" stroke="none" 
	d="
M185.737061,117.910507 
	C185.478119,117.971428 185.277298,117.724808 185.057617,117.205444 
	C185.234787,117.201797 185.486938,117.425217 185.737061,117.910507 
z"/>
<path fill="#328DC3" opacity="1.000000" stroke="none" 
	d="
M134.099747,106.979683 
	C132.901169,109.626015 131.702576,112.272339 130.503998,114.918671 
	C130.114563,114.890518 129.725113,114.862373 129.335678,114.834229 
	C128.896881,111.812531 128.458099,108.790840 127.991516,104.896690 
	C127.666313,97.609756 127.368912,91.195274 127.071503,84.780800 
	C126.671822,81.481705 126.272148,78.182617 126.067673,74.586227 
	C131.856125,75.647911 130.518585,70.729889 130.701584,68.545845 
	C131.244156,62.069588 130.963867,55.524391 131.341278,48.925217 
	C134.118362,46.562820 136.559494,44.281361 138.991928,42.394825 
	C136.178741,49.459583 135.622375,56.420139 135.945969,63.581005 
	C136.207764,69.374001 135.997421,75.188324 135.785553,81.250687 
	C134.278915,83.372009 131.591049,85.608521 131.970001,87.024033 
	C132.826263,90.222549 135.197144,93.015602 137.000336,96.281326 
	C137.088104,96.792969 137.127472,96.996872 137.166855,97.200783 
	C136.422409,99.482635 135.677963,101.764488 134.709808,104.628433 
	C134.357330,105.800255 134.228546,106.389969 134.099747,106.979683 
z"/>
<path fill="#2C87C3" opacity="1.000000" stroke="none" 
	d="
M135.996521,80.993187 
	C135.997421,75.188324 136.207764,69.374001 135.945969,63.581005 
	C135.622375,56.420139 136.178741,49.459583 139.251495,42.390450 
	C139.692780,41.987091 139.865814,41.983032 140.038849,41.978977 
	C141.421082,43.616768 142.803299,45.254559 144.441483,47.078705 
	C145.668488,49.314968 146.639526,51.364872 147.437622,53.807510 
	C146.574677,55.707886 145.291092,57.218140 145.297745,58.722691 
	C145.326157,65.146721 145.735641,71.569069 145.801544,78.274414 
	C144.809616,80.624084 144.022247,82.691360 143.522064,84.004585 
	C144.996429,85.686127 146.010681,86.842911 146.641754,88.019928 
	C145.306259,88.314445 144.353943,88.588715 143.401627,88.862976 
	C143.401627,88.862976 143.173325,88.781281 142.811676,88.916412 
	C142.221024,89.340828 141.992020,89.630119 141.763016,89.919411 
	C141.441574,89.988388 141.210205,90.171295 140.820663,90.803955 
	C140.312683,91.352249 140.196609,91.625702 140.224167,91.960121 
	C140.224167,91.960121 139.961349,92.287766 139.725571,92.650200 
	C139.379425,93.329727 139.269058,93.646820 139.158691,93.963913 
	C139.158691,93.963913 138.917374,94.298615 138.681549,94.728851 
	C138.279816,95.753014 138.113907,96.346947 137.947998,96.940872 
	C137.947998,96.940872 137.569305,97.109116 137.368073,97.154953 
	C137.127472,96.996872 137.088104,96.792969 137.021912,95.891800 
	C137.426895,90.896133 137.920044,86.601517 138.185699,82.292862 
	C138.209549,81.906097 136.761169,81.428566 135.996521,80.993187 
z"/>
<path fill="#3DA2CE" opacity="1.000000" stroke="none" 
	d="
M113.452484,152.464813 
	C111.539047,151.937622 109.964417,151.573639 108.481590,150.980286 
	C107.216965,150.474213 106.057877,149.704422 104.723549,148.703384 
	C104.594994,148.355469 104.522484,148.119263 104.854195,147.914185 
	C105.419815,147.442886 105.653725,147.176666 105.900871,146.482483 
	C106.163406,144.089127 106.529167,142.130188 106.638771,140.157028 
	C106.901329,135.430008 107.043427,130.696274 107.234146,125.965256 
	C107.243477,125.526054 107.252808,125.086861 107.666367,124.115677 
	C108.321236,120.849655 108.571861,118.115623 108.822495,115.381584 
	C110.197174,108.845329 111.571854,102.309074 113.198616,95.196754 
	C113.639168,94.358566 113.768333,94.069908 113.838203,93.754715 
	C113.838203,93.754715 113.829277,93.866600 114.108551,93.785782 
	C117.403107,93.334396 119.717354,93.476997 117.791458,97.580696 
	C117.462341,98.281975 118.167320,99.406288 118.166626,100.335007 
	C118.163986,103.888527 118.068314,107.441994 117.674805,111.109634 
	C115.469254,112.134560 113.596268,113.045319 111.957870,113.842010 
	C112.520050,118.696640 113.046158,123.239754 113.669418,128.621841 
	C113.486465,129.083405 112.434212,130.521072 112.434120,131.958801 
	C112.433815,136.957733 112.798332,141.956696 112.932396,144.924850 
	C114.507538,147.622986 115.753845,149.757843 116.971420,152.015762 
	C116.942688,152.138824 116.882782,152.384369 116.882782,152.384369 
	C115.865562,152.432419 114.848343,152.480469 113.452484,152.464813 
z"/>
<path fill="#3294C9" opacity="1.000000" stroke="none" 
	d="
M131.005310,49.006149 
	C130.963867,55.524391 131.244156,62.069588 130.701584,68.545845 
	C130.518585,70.729889 131.856125,75.647911 125.976311,74.183014 
	C125.190536,73.650230 124.691345,73.223366 123.973206,72.242630 
	C123.647606,69.855568 123.306435,68.000290 123.476593,66.193153 
	C124.077354,59.813240 127.075996,52.548588 124.958145,47.325306 
	C122.691666,41.735497 124.198654,36.739479 123.092010,31.647589 
	C122.808807,30.344482 121.750816,29.209761 121.048782,27.997681 
	C121.697746,26.261023 122.346718,24.524364 123.042816,22.438890 
	C124.803558,21.753149 126.517174,21.416224 128.606110,21.081745 
	C129.640793,22.472340 130.300171,23.860485 130.890656,25.905664 
	C130.574478,29.436876 131.395721,33.225430 129.871368,35.006844 
	C125.936089,39.605755 127.906189,41.809750 131.923553,44.355980 
	C131.570221,46.144897 131.287766,47.575523 131.005310,49.006149 
z"/>
<path fill="#369BCB" opacity="1.000000" stroke="none" 
	d="
M120.877258,28.313519 
	C121.750816,29.209761 122.808807,30.344482 123.092010,31.647589 
	C124.198654,36.739479 122.691666,41.735497 124.958145,47.325306 
	C127.075996,52.548588 124.077354,59.813240 123.476593,66.193153 
	C123.306435,68.000290 123.647606,69.855568 123.821045,72.045395 
	C122.153610,73.174271 120.419411,73.946510 118.198944,75.062454 
	C117.496010,75.697655 117.279327,75.989159 117.062653,76.280663 
	C117.062653,76.280663 117.163223,76.154091 116.869980,76.011475 
	C116.056290,74.214752 115.063385,72.551018 115.096909,70.908226 
	C115.244659,63.666367 115.827667,56.433067 115.958763,49.191341 
	C116.014206,46.128914 115.344490,43.053364 115.004364,39.983772 
	C116.904816,36.198967 118.805275,32.414162 120.877258,28.313519 
z"/>
<path fill="#3AA2CE" opacity="1.000000" stroke="none" 
	d="
M114.687958,40.109467 
	C115.344490,43.053364 116.014206,46.128914 115.958763,49.191341 
	C115.827667,56.433067 115.244659,63.666367 115.096909,70.908226 
	C115.063385,72.551018 116.056290,74.214752 116.931763,76.063599 
	C116.055710,78.527092 114.824638,80.795830 113.355087,83.253113 
	C111.874298,82.810646 110.631989,82.179642 108.367393,81.029381 
	C109.042946,83.876236 109.458908,85.629150 110.087914,88.279846 
	C106.578873,85.463799 104.735626,83.669777 106.483955,79.236801 
	C107.854652,75.761299 106.737137,71.358978 107.101089,67.403015 
	C107.232582,65.973877 108.457733,64.645355 109.660362,62.368858 
	C109.328316,59.940632 108.818466,56.212135 108.151749,52.226311 
	C110.120438,48.057705 112.245987,44.146431 114.687958,40.109467 
z"/>
<path fill="#3E95C1" opacity="1.000000" stroke="none" 
	d="
M118.007370,110.995476 
	C118.068314,107.441994 118.163986,103.888527 118.166626,100.335007 
	C118.167320,99.406288 117.462341,98.281975 117.791458,97.580696 
	C119.717354,93.476997 117.403107,93.334396 114.052925,93.778381 
	C115.814461,89.121689 117.831024,84.352776 120.090309,79.701759 
	C120.444099,78.973442 121.901024,78.780983 122.971848,79.056702 
	C123.359909,80.720001 123.623978,81.667336 123.888054,82.614670 
	C123.936699,87.113365 123.985352,91.612053 124.042984,97.016159 
	C124.334602,101.433342 124.617233,104.945129 124.899872,108.456909 
	C124.951515,109.742256 125.003159,111.027611 125.177750,112.978661 
	C125.509697,113.969025 125.718697,114.293686 125.927696,114.618340 
	C125.942841,115.223320 125.957977,115.828300 126.176620,117.032227 
	C127.891151,118.704880 129.402176,119.778587 130.942993,120.964561 
	C130.972794,121.076836 131.076950,121.284477 130.954193,121.537201 
	C130.221802,122.197952 129.612152,122.605995 128.677704,122.935669 
	C126.580322,121.564095 124.807755,120.270882 123.027756,118.573456 
	C124.240448,113.757713 120.032486,113.139267 118.007370,110.995476 
z"/>
<path fill="#2B73B5" opacity="1.000000" stroke="none" 
	d="
M149.928009,100.002243 
	C153.177292,104.154099 156.426559,108.305954 159.563538,112.725769 
	C158.973923,113.015396 158.496597,113.037056 157.667786,112.973953 
	C155.225082,111.575493 153.133865,110.261795 150.879303,108.623703 
	C148.825424,107.860069 146.934906,107.420815 145.032440,106.980469 
	C145.020493,106.979378 145.018311,106.955490 145.019531,106.652267 
	C144.332092,105.559631 143.643417,104.770226 142.753754,103.638977 
	C142.272614,101.422043 141.992462,99.546951 141.671967,97.530670 
	C141.631607,97.389473 141.552948,97.106499 141.552948,97.106499 
	C141.895248,96.572212 142.237534,96.037926 143.090454,95.289894 
	C145.710068,96.718178 147.819046,98.360214 149.928009,100.002243 
z"/>
<path fill="#1F7FC3" opacity="1.000000" stroke="none" 
	d="
M147.024933,87.999687 
	C146.010681,86.842911 144.996429,85.686127 143.522064,84.004585 
	C144.022247,82.691360 144.809616,80.624084 146.156097,78.318222 
	C148.807907,79.052986 150.900635,80.026352 153.039825,81.381058 
	C153.384399,85.520454 153.682510,89.278519 153.718063,92.873169 
	C152.388412,92.132019 151.321304,91.554283 150.254211,90.976547 
	C150.254211,90.976547 150.039032,90.976456 149.974060,90.793121 
	C149.909073,90.609787 149.934296,90.211365 149.992966,89.937271 
	C150.090164,89.480530 150.128708,89.297882 150.370148,89.033363 
	C150.756790,88.600105 150.940506,88.248711 151.124222,87.897308 
	C150.710800,88.208649 150.297379,88.519981 149.622559,88.885452 
	C149.186325,88.974998 149.011536,89.010406 148.630463,89.044632 
	C148.424164,89.043449 148.017410,89.112846 148.017410,89.112846 
	C148.017410,89.112846 147.758087,88.876266 147.486969,88.651398 
	C147.215851,88.426537 147.024933,87.999687 147.024933,87.999687 
z"/>
<path fill="#2B73B5" opacity="1.000000" stroke="none" 
	d="
M150.201721,91.182419 
	C151.321304,91.554283 152.388412,92.132019 153.730713,93.222412 
	C154.162415,95.809364 154.556168,97.371033 157.247787,95.967392 
	C157.961639,95.595146 159.066650,95.973038 160.033539,96.354507 
	C162.072418,99.217064 163.034409,101.786362 161.191559,104.920349 
	C160.678207,105.793373 161.014771,107.166168 160.961426,108.309692 
	C158.912659,105.719666 156.657349,103.262901 154.875275,100.500801 
	C153.209763,97.919395 152.046402,95.014000 150.389191,92.031570 
	C150.116379,91.811935 150.149246,91.388290 150.201721,91.182419 
z"/>
<path fill="#3780B5" opacity="1.000000" stroke="none" 
	d="
M141.712326,97.671867 
	C141.992462,99.546951 142.272614,101.422043 142.762299,104.014069 
	C142.969498,105.479584 142.967133,106.228165 142.638702,107.043724 
	C140.872635,109.734802 139.432663,112.358894 137.703796,115.072571 
	C136.642059,115.794205 135.869186,116.426270 134.975143,116.954803 
	C134.853989,116.851273 134.612488,116.643257 134.612488,116.643257 
	C134.749588,116.009956 134.886673,115.376656 135.168945,114.280762 
	C135.481812,113.602051 135.566208,113.357231 135.567337,113.083702 
	C137.048645,109.056389 138.529953,105.029076 140.239471,100.481705 
	C140.693878,99.695129 140.783554,99.388680 140.736710,99.042297 
	C140.811096,98.868790 140.885498,98.695282 141.158234,98.163223 
	C141.356567,97.804665 141.712326,97.671867 141.712326,97.671867 
z"/>
<path fill="#5CA5BF" opacity="1.000000" stroke="none" 
	d="
M98.079697,84.021606 
	C98.470375,88.699097 99.105011,93.371887 99.195244,98.055168 
	C99.334755,105.296768 99.120964,112.545815 99.014214,119.791069 
	C98.987648,121.594078 98.797150,123.394661 98.530167,125.574409 
	C98.221825,123.269974 98.065315,120.587494 97.950378,117.061691 
	C97.935005,115.142868 97.878067,114.067352 97.821121,112.991837 
	C97.849236,112.545364 97.877350,112.098892 97.950722,110.859482 
	C98.023880,101.384895 98.051788,92.703247 98.079697,84.021606 
z"/>
<path fill="#003148" opacity="1.000000" stroke="none" 
	d="
M98.009369,83.639664 
	C98.051788,92.703247 98.023880,101.384895 97.911873,110.525558 
	C97.557549,103.202431 97.242554,95.421486 97.033585,87.637680 
	C96.904167,82.817085 96.935844,77.992180 96.905846,72.718353 
	C97.247299,73.003738 97.578110,73.739975 97.915230,75.196350 
	C97.965897,77.591476 98.010254,79.266457 98.054611,80.941437 
	C98.016083,81.713531 97.977562,82.485626 98.009369,83.639664 
z"/>
<path fill="#4F91AF" opacity="1.000000" stroke="none" 
	d="
M107.125381,126.384720 
	C107.043427,130.696274 106.901329,135.430008 106.638771,140.157028 
	C106.529167,142.130188 106.163406,144.089127 105.647781,146.496964 
	C105.211739,146.938446 105.042030,146.937469 104.872314,146.936493 
	C105.587082,140.225723 106.301857,133.514954 107.125381,126.384720 
z"/>
<path fill="#003148" opacity="1.000000" stroke="none" 
	d="
M94.838707,124.790771 
	C94.488785,117.834480 94.243210,110.402939 94.081123,102.518051 
	C94.424088,109.481651 94.683563,116.898590 94.838707,124.790771 
z"/>
<path fill="#3780B5" opacity="1.000000" stroke="none" 
	d="
M149.880219,99.667374 
	C147.819046,98.360214 145.710068,96.718178 143.313980,95.063614 
	C144.255249,92.105812 145.701508,91.401070 147.769897,94.805458 
	C148.618210,96.442574 149.225311,97.887535 149.880219,99.667374 
z"/>
<path fill="#030D1B" opacity="1.000000" stroke="none" 
	d="
M127.042145,85.265656 
	C127.368912,91.195274 127.666313,97.609756 127.905472,104.483505 
	C127.569077,98.545357 127.290924,92.147934 127.042145,85.265656 
z"/>
<path fill="#030D1B" opacity="1.000000" stroke="none" 
	d="
M124.925949,107.970253 
	C124.617233,104.945129 124.334602,101.433342 124.117630,97.475800 
	C124.439529,100.514557 124.695778,103.999077 124.925949,107.970253 
z"/>
<path fill="#030D1B" opacity="1.000000" stroke="none" 
	d="
M130.913193,120.852295 
	C129.402176,119.778587 127.891151,118.704880 126.317307,117.308731 
	C127.660774,117.925262 129.067047,118.864243 130.729034,120.122185 
	C130.984726,120.441147 130.913193,120.852295 130.913193,120.852295 
z"/>
<path fill="#4F91AF" opacity="1.000000" stroke="none" 
	d="
M108.582916,115.725449 
	C108.571861,118.115623 108.321236,120.849655 107.779739,123.804703 
	C107.773689,121.373573 108.058517,118.721436 108.582916,115.725449 
z"/>
<path fill="#003148" opacity="1.000000" stroke="none" 
	d="
M97.672684,113.256973 
	C97.878067,114.067352 97.935005,115.142868 97.908318,116.615265 
	C97.724541,115.848801 97.624390,114.685455 97.672684,113.256973 
z"/>
<path fill="#3780B5" opacity="1.000000" stroke="none" 
	d="
M132.593079,119.517204 
	C133.124710,118.695160 133.656342,117.873123 134.400238,116.847168 
	C134.612488,116.643257 134.853989,116.851273 134.952927,117.273834 
	C135.039413,118.123093 135.026978,118.549805 134.763992,119.103607 
	C134.021469,119.501686 133.529480,119.772667 132.926575,119.911880 
	C132.815643,119.780113 132.593079,119.517204 132.593079,119.517204 
z"/>
<path fill="#030D1B" opacity="1.000000" stroke="none" 
	d="
M123.900612,82.238144 
	C123.623978,81.667336 123.359909,80.720001 123.132523,79.399483 
	C123.417198,79.971405 123.665184,80.916512 123.900612,82.238144 
z"/>
<path fill="#030D1B" opacity="1.000000" stroke="none" 
	d="
M146.641754,88.019928 
	C147.024933,87.999687 147.215851,88.426537 147.311844,88.639801 
	C146.407593,88.871277 145.407364,88.889473 143.904373,88.885323 
	C144.353943,88.588715 145.306259,88.314445 146.641754,88.019928 
z"/>
<path fill="#3780B5" opacity="1.000000" stroke="none" 
	d="
M130.942993,120.964569 
	C130.913193,120.852295 130.984726,120.441147 131.038071,120.239464 
	C131.428452,119.933655 131.765488,119.829529 132.347809,119.621307 
	C132.593079,119.517204 132.815643,119.780113 132.709381,120.105621 
	C132.094406,120.715569 131.585678,121.000023 131.076950,121.284470 
	C131.076950,121.284477 130.972794,121.076836 130.942993,120.964569 
z"/>
<path fill="#030D1B" opacity="1.000000" stroke="none" 
	d="
M134.276978,106.736572 
	C134.228546,106.389969 134.357330,105.800255 134.698563,104.988716 
	C134.758743,105.342422 134.606476,105.917946 134.276978,106.736572 
z"/>
<path fill="#030D1B" opacity="1.000000" stroke="none" 
	d="
M138.150314,96.705994 
	C138.113907,96.346947 138.279816,95.753014 138.664597,94.934464 
	C138.706512,95.296928 138.529572,95.884026 138.150314,96.705994 
z"/>
<path fill="#4A96C4" opacity="1.000000" stroke="none" 
	d="
M104.778229,147.190567 
	C105.042030,146.937469 105.211739,146.938446 105.634537,146.924927 
	C105.653725,147.176666 105.419815,147.442886 104.957756,147.846832 
	C104.714455,147.804611 104.699303,147.624634 104.778229,147.190567 
z"/>
<path fill="#030D1B" opacity="1.000000" stroke="none" 
	d="
M140.596649,99.230515 
	C140.783554,99.388680 140.693878,99.695129 140.281525,100.121658 
	C140.167084,99.973656 140.287491,99.686005 140.596649,99.230515 
z"/>
<path fill="#030D1B" opacity="1.000000" stroke="none" 
	d="
M141.671967,97.530670 
	C141.712326,97.671867 141.356567,97.804665 141.183243,97.881157 
	C141.083832,97.741257 141.189590,97.541733 141.440063,97.232796 
	C141.552948,97.106499 141.631607,97.389473 141.671967,97.530670 
z"/>
<path fill="#3AA2CE" opacity="1.000000" stroke="none" 
	d="
M117.337479,76.175873 
	C117.279327,75.989159 117.496010,75.697655 117.911163,75.220978 
	C117.943848,75.380905 117.778076,75.725990 117.337479,76.175873 
z"/>
<path fill="#030D1B" opacity="1.000000" stroke="none" 
	d="
M149.934296,90.211365 
	C149.934296,90.211365 149.909073,90.609787 149.867081,90.804504 
	C149.578217,90.839172 149.353668,90.652298 149.038177,90.250114 
	C148.924911,90.061623 148.982056,90.017036 149.218750,90.072281 
	C149.455460,90.127525 149.934296,90.211365 149.934296,90.211365 
z"/>
<path fill="#3E95C1" opacity="1.000000" stroke="none" 
	d="
M113.600670,93.876549 
	C113.768333,94.069908 113.639168,94.358566 113.303909,94.808434 
	C113.225800,94.663582 113.294472,94.330978 113.600670,93.876549 
z"/>
<path fill="#030D1B" opacity="1.000000" stroke="none" 
	d="
M139.317535,93.775841 
	C139.269058,93.646820 139.379425,93.329727 139.695984,92.858124 
	C139.812271,93.023376 139.670334,93.318100 139.317535,93.775841 
z"/>
<path fill="#030D1B" opacity="1.000000" stroke="none" 
	d="
M125.856369,114.343781 
	C125.718697,114.293686 125.509697,113.969025 125.303192,113.345932 
	C125.465469,113.388069 125.625259,113.728645 125.856369,114.343781 
z"/>
<path fill="#030D1B" opacity="1.000000" stroke="none" 
	d="
M135.449036,113.235527 
	C135.566208,113.357231 135.481812,113.602051 135.173645,113.956543 
	C135.090988,113.841667 135.190170,113.605812 135.449036,113.235527 
z"/>
<path fill="#030D1B" opacity="1.000000" stroke="none" 
	d="
M141.995605,89.793747 
	C141.992020,89.630119 142.221024,89.340828 142.730347,89.006310 
	C142.749817,89.196739 142.488998,89.432411 141.995605,89.793747 
z"/>
<path fill="#030D1B" opacity="1.000000" stroke="none" 
	d="
M140.375931,91.805992 
	C140.196609,91.625702 140.312683,91.352249 140.773224,91.026764 
	C140.864960,91.183807 140.716171,91.429840 140.375931,91.805992 
z"/>
<path fill="#030D1B" opacity="1.000000" stroke="none" 
	d="
M148.137726,89.295387 
	C148.017410,89.112846 148.424164,89.043449 148.666443,89.287659 
	C148.908707,89.531860 148.982056,90.017036 148.982056,90.017036 
	C148.982056,90.017036 148.924911,90.061623 148.895538,90.082779 
	C148.638412,89.919586 148.435699,89.710922 148.137726,89.295387 
z"/>
<path fill="#5CA5BF" opacity="1.000000" stroke="none" 
	d="
M98.251114,80.654297 
	C98.010254,79.266457 97.965897,77.591476 97.989738,75.505341 
	C98.187843,76.851837 98.317734,78.609489 98.251114,80.654297 
z"/>
<path fill="#1B72BD" opacity="1.000000" stroke="none" 
	d="
M158.019287,113.058716 
	C158.496597,113.037056 158.973923,113.015396 159.808136,112.961334 
	C161.439041,112.883263 162.713074,112.837578 164.374725,112.753777 
	C165.736694,112.715668 166.711060,112.715668 168.928482,112.715668 
	C168.928482,125.565056 168.928482,138.340454 168.964767,151.528992 
	C168.832047,151.953323 168.663040,151.964554 168.239929,151.984741 
	C165.569305,151.770477 163.152756,151.547226 160.287643,150.789429 
	C159.226273,146.855286 158.177719,143.467484 158.085190,140.053772 
	C157.841446,131.061432 158.013077,122.057831 158.019287,113.058716 
z"/>
<path fill="#1061B6" opacity="1.000000" stroke="none" 
	d="
M185.823639,149.792435 
	C184.928314,150.355347 183.828369,150.682129 182.374390,151.009262 
	C175.367661,148.276779 174.474747,144.567215 178.633026,138.678116 
	C179.398605,137.593857 178.765030,135.493164 178.707031,133.864136 
	C178.652328,132.327972 178.505035,130.795120 178.702484,129.133072 
	C180.397690,131.259476 182.038742,133.400650 183.120850,135.794510 
	C184.700577,139.289291 188.572296,142.552231 184.793564,146.979309 
	C184.485367,147.340378 185.317017,148.674377 185.823639,149.792435 
z"/>
<path fill="#1061B6" opacity="1.000000" stroke="none" 
	d="
M176.373993,103.120361 
	C176.792114,104.405586 176.943680,105.770699 177.082062,107.548813 
	C176.082550,106.509064 172.700745,105.539993 176.373993,103.120361 
z"/>
<path fill="#50C2DB" opacity="1.000000" stroke="none" 
	d="
M68.969864,121.968376 
	C71.777611,116.436424 74.585358,110.904472 77.660782,105.174973 
	C83.248077,102.541237 81.785515,107.122078 81.548721,108.993942 
	C80.703880,115.672531 78.207199,122.185333 82.376503,128.845978 
	C83.401070,130.482788 82.329376,133.642670 81.791901,136.004623 
	C80.471390,141.807724 80.581512,147.180405 85.490868,151.836975 
	C81.070053,152.015350 76.457054,151.931137 71.437515,151.908600 
	C71.030975,151.970306 70.978836,151.920410 70.986816,151.686859 
	C70.994804,151.453293 71.001503,150.985962 71.001732,150.518265 
	C71.033562,143.580688 71.282906,137.101196 70.998360,130.645248 
	C70.869812,127.728821 69.678833,124.859222 68.969864,121.968376 
z"/>
<path fill="#4FBAD7" opacity="1.000000" stroke="none" 
	d="
M94.506821,151.491180 
	C94.514282,151.510391 94.499352,151.471985 94.506821,151.491180 
z"/>
<path fill="#52CDE0" opacity="1.000000" stroke="none" 
	d="
M68.683098,122.157898 
	C69.678833,124.859222 70.869812,127.728821 70.998360,130.645248 
	C71.282906,137.101196 71.033562,143.580688 70.819626,150.653107 
	C70.402969,151.446136 70.186752,151.655319 69.654480,151.915192 
	C68.510399,152.275436 67.700462,152.603699 66.890533,152.931976 
	C66.554840,152.936813 66.219147,152.941650 65.545914,152.695801 
	C65.144707,152.282852 65.081047,152.120560 65.017395,151.958282 
	C64.302383,150.949341 63.597301,149.933182 62.869404,148.933624 
	C62.217503,148.038437 61.245960,147.257004 60.923138,146.260849 
	C59.064796,140.526443 63.565041,126.355942 68.683098,122.157898 
z"/>
<path fill="#49B1D1" opacity="1.000000" stroke="none" 
	d="
M67.251984,153.085815 
	C67.700462,152.603699 68.510399,152.275436 69.901749,151.932098 
	C70.483154,151.917038 70.978836,151.920410 70.978836,151.920410 
	C70.978836,151.920410 71.030975,151.970306 71.061188,151.991516 
	C69.932076,152.421707 68.772751,152.830688 67.251984,153.085815 
z"/>
<path fill="#49B1D1" opacity="1.000000" stroke="none" 
	d="
M64.813309,152.031067 
	C65.081047,152.120560 65.144707,152.282852 65.294128,152.692490 
	C64.983871,152.887726 64.587852,152.835602 64.191833,152.783478 
	C64.330963,152.556946 64.470085,152.330399 64.813309,152.031067 
z"/>
<path fill="#244EA2" opacity="1.000000" stroke="none" 
	d="
M188.867859,127.055054 
	C189.340698,127.170364 189.555664,127.375389 189.874908,127.789169 
	C189.291290,128.014450 188.577682,128.057938 187.864090,128.101425 
	C188.121307,127.773560 188.378510,127.445686 188.867859,127.055054 
z"/>
<path fill="#1B72BD" opacity="1.000000" stroke="none" 
	d="
M161.213959,108.496323 
	C161.014771,107.166168 160.678207,105.793373 161.191559,104.920349 
	C163.034409,101.786362 162.072418,99.217064 160.239899,96.035950 
	C161.617386,91.892319 162.830017,88.415245 164.042633,84.938171 
	C165.711288,88.066635 167.379944,91.195099 169.101013,94.725746 
	C169.153458,95.127922 169.100281,95.074974 168.898499,95.301880 
	C168.508545,96.394791 168.320374,97.260796 168.132202,98.126801 
	C168.132202,98.126801 168.101028,98.057220 167.892120,98.302673 
	C167.500854,99.459061 167.318481,100.369995 167.136108,101.280930 
	C166.264008,104.527832 165.797775,108.085625 161.213959,108.496323 
z"/>
<path fill="#2F5DA3" opacity="1.000000" stroke="none" 
	d="
M167.371033,101.018173 
	C167.318481,100.369995 167.500854,99.459061 167.927551,98.288574 
	C167.983231,98.937820 167.794586,99.846619 167.371033,101.018173 
z"/>
<path fill="#2F5DA3" opacity="1.000000" stroke="none" 
	d="
M168.367493,97.884750 
	C168.320374,97.260796 168.508545,96.394791 168.929184,95.280334 
	C168.975357,95.902153 168.789078,96.772430 168.367493,97.884750 
z"/>
<path fill="#2D8CC6" opacity="1.000000" stroke="none" 
	d="
M130.954193,121.537193 
	C131.585678,121.000023 132.094406,120.715569 132.820312,120.237381 
	C133.529480,119.772667 134.021469,119.501686 135.079468,119.053955 
	C137.430252,119.586136 139.215027,120.295067 140.868103,121.309792 
	C141.246231,123.681923 142.637268,126.010017 142.114563,127.769646 
	C139.750381,135.728546 141.125412,143.381287 143.056503,151.079620 
	C139.341156,151.373352 135.625809,151.667084 131.452484,151.531052 
	C130.330505,141.738861 129.666504,132.376450 129.002502,123.014023 
	C129.612152,122.605995 130.221802,122.197952 130.954193,121.537193 
z"/>
<path fill="#2683C4" opacity="1.000000" stroke="none" 
	d="
M143.489471,151.072418 
	C141.125412,143.381287 139.750381,135.728546 142.114563,127.769646 
	C142.637268,126.010017 141.246231,123.681923 141.159271,121.082420 
	C142.045410,118.286758 142.508713,116.024261 143.202682,112.635231 
	C140.365768,113.913612 139.179230,114.448296 137.992676,114.982986 
	C139.432663,112.358894 140.872635,109.734802 142.981384,107.047539 
	C144.106186,106.974747 144.562256,106.965118 145.018311,106.955490 
	C145.018311,106.955490 145.020493,106.979378 145.026733,107.337326 
	C145.384857,112.679649 149.038620,109.157104 150.960419,110.427887 
	C150.284546,119.050491 149.377457,127.245331 149.097366,135.461548 
	C148.920990,140.635269 149.683502,145.840988 150.024841,151.032364 
	C147.990707,151.043320 145.956573,151.054276 143.489471,151.072418 
z"/>
<path fill="#217BC0" opacity="1.000000" stroke="none" 
	d="
M150.476349,151.033844 
	C149.683502,145.840988 148.920990,140.635269 149.097366,135.461548 
	C149.377457,127.245331 150.284546,119.050491 150.970932,110.162491 
	C151.024536,109.301605 151.033600,109.124847 151.042648,108.948090 
	C153.133865,110.261795 155.225082,111.575493 157.667786,112.973953 
	C158.013077,122.057831 157.841446,131.061432 158.085190,140.053772 
	C158.177719,143.467484 159.226273,146.855286 159.922424,150.635468 
	C156.979782,151.022461 153.953827,151.028900 150.476349,151.033844 
z"/>
<path fill="#3296CA" opacity="1.000000" stroke="none" 
	d="
M128.677704,122.935669 
	C129.666504,132.376450 130.330505,141.738861 130.996902,151.513245 
	C129.284332,151.943451 127.569359,151.961700 125.085434,151.962036 
	C123.863441,151.917999 123.410400,151.891891 122.966835,151.494476 
	C122.637817,145.029068 122.346359,138.931870 121.941208,132.842209 
	C121.734680,129.738007 121.058182,126.642227 121.118034,123.552788 
	C121.147804,122.015945 122.358620,120.501984 123.035179,118.977669 
	C124.807755,120.270882 126.580322,121.564095 128.677704,122.935669 
z"/>
<path fill="#4A96C4" opacity="1.000000" stroke="none" 
	d="
M122.957359,151.865799 
	C123.410400,151.891891 123.863441,151.917999 124.656830,151.957062 
	C122.576805,152.168671 120.156425,152.367325 117.309418,152.475174 
	C116.882782,152.384369 116.942688,152.138824 117.398590,152.036713 
	C119.555450,151.911667 121.256401,151.888733 122.957359,151.865799 
z"/>
<path fill="#277DBF" opacity="1.000000" stroke="none" 
	d="
M152.993347,80.999710 
	C150.900635,80.026352 148.807907,79.052986 146.360657,78.035828 
	C145.735641,71.569069 145.326157,65.146721 145.297745,58.722691 
	C145.291092,57.218140 146.574677,55.707886 147.606430,54.100204 
	C148.146866,54.249332 148.355652,54.489719 148.741089,54.891579 
	C151.416306,60.005878 153.943893,64.940460 156.423431,69.899071 
	C157.298416,71.648865 158.055923,73.457390 158.932968,75.979515 
	C158.340485,78.137474 157.682114,79.555038 156.906219,80.658272 
	C154.731888,77.901619 152.675079,75.459290 150.618256,73.016953 
	C150.198471,73.385735 149.778702,73.754509 149.358917,74.123291 
	C150.572525,76.413345 151.786118,78.703400 152.999847,80.996521 
	C153.000000,80.999573 152.993347,80.999710 152.993347,80.999710 
z"/>
<path fill="#1F77BD" opacity="1.000000" stroke="none" 
	d="
M157.023727,80.972595 
	C157.682114,79.555038 158.340485,78.137474 159.005890,76.335648 
	C159.428619,75.977249 159.844330,76.003128 160.568024,76.073120 
	C161.920822,78.811852 162.965683,81.506485 164.026581,84.569641 
	C162.830017,88.415245 161.617386,91.892319 160.198410,95.687943 
	C159.066650,95.973038 157.961639,95.595146 157.247787,95.967392 
	C154.556168,97.371033 154.162415,95.809364 153.993286,93.385826 
	C153.682510,89.278519 153.384399,85.520454 153.039825,81.381058 
	C152.993347,80.999710 153.000000,80.999573 153.401947,80.997803 
	C154.877167,80.988213 155.950455,80.980400 157.023727,80.972595 
z"/>
<path fill="#328DC3" opacity="1.000000" stroke="none" 
	d="
M131.994415,43.997681 
	C127.906189,41.809750 125.936089,39.605755 129.871368,35.006844 
	C131.395721,33.225430 130.574478,29.436876 130.975662,26.228924 
	C132.775223,28.277678 134.420929,30.660208 136.379333,33.172707 
	C137.104431,34.614338 137.516830,35.926003 137.764130,37.816456 
	C135.730835,40.262726 133.862625,42.130203 131.994415,43.997681 
z"/>
<path fill="#2D8CC6" opacity="1.000000" stroke="none" 
	d="
M131.923553,44.355976 
	C133.862625,42.130203 135.730835,40.262726 137.838776,38.154743 
	C138.640427,39.072834 139.202332,40.231430 139.901550,41.684502 
	C139.865814,41.983032 139.692780,41.987091 139.260178,41.995522 
	C136.559494,44.281361 134.118362,46.562820 131.341278,48.925217 
	C131.287766,47.575523 131.570221,46.144897 131.923553,44.355976 
z"/>
<path fill="#2D8CC6" opacity="1.000000" stroke="none" 
	d="
M135.785553,81.250687 
	C136.761169,81.428566 138.209549,81.906097 138.185699,82.292862 
	C137.920044,86.601517 137.426895,90.896133 136.973511,95.584061 
	C135.197144,93.015602 132.826263,90.222549 131.970001,87.024033 
	C131.591049,85.608521 134.278915,83.372009 135.785553,81.250687 
z"/>
<path fill="#369ECD" opacity="1.000000" stroke="none" 
	d="
M122.966835,151.494476 
	C121.256401,151.888733 119.555450,151.911667 117.427322,151.913666 
	C115.753845,149.757843 114.507538,147.622986 112.932396,144.924850 
	C112.798332,141.956696 112.433815,136.957733 112.434120,131.958801 
	C112.434212,130.521072 113.486465,129.083405 113.669418,128.621841 
	C113.046158,123.239754 112.520050,118.696640 111.957870,113.842010 
	C113.596268,113.045319 115.469254,112.134560 117.674805,111.109634 
	C120.032486,113.139267 124.240448,113.757713 123.027740,118.573456 
	C122.358620,120.501984 121.147804,122.015945 121.118034,123.552788 
	C121.058182,126.642227 121.734680,129.738007 121.941208,132.842209 
	C122.346359,138.931870 122.637817,145.029068 122.966835,151.494476 
z"/>
<path fill="#1F7FC3" opacity="1.000000" stroke="none" 
	d="
M150.879303,108.623703 
	C151.033600,109.124847 151.024536,109.301605 151.004944,109.743759 
	C149.038620,109.157104 145.384857,112.679649 145.038666,107.338425 
	C146.934906,107.420815 148.825424,107.860069 150.879303,108.623703 
z"/>
<path fill="#1F7FC3" opacity="1.000000" stroke="none" 
	d="
M145.019531,106.652267 
	C144.562256,106.965118 144.106186,106.974747 143.307449,106.980560 
	C142.967133,106.228165 142.969498,105.479584 142.963287,104.355911 
	C143.643417,104.770226 144.332092,105.559631 145.019531,106.652267 
z"/>
<path fill="#2C87C3" opacity="1.000000" stroke="none" 
	d="
M149.883972,88.831329 
	C150.297379,88.519981 150.710800,88.208649 151.124222,87.897308 
	C150.940506,88.248711 150.756790,88.600105 150.295959,88.964455 
	C150.018845,88.977417 149.883972,88.831329 149.883972,88.831329 
z"/>
<path fill="#2B73B5" opacity="1.000000" stroke="none" 
	d="
M149.218750,90.072281 
	C148.982056,90.017036 148.908707,89.531860 148.872742,89.288834 
	C149.011536,89.010406 149.186325,88.974998 149.622559,88.885452 
	C149.883972,88.831329 150.018845,88.977417 150.093048,89.046326 
	C150.128708,89.297882 150.090164,89.480530 149.992966,89.937271 
	C149.934296,90.211365 149.455460,90.127525 149.218750,90.072281 
z"/>
<path fill="#2C87C3" opacity="1.000000" stroke="none" 
	d="
M137.703796,115.072571 
	C139.179230,114.448296 140.365768,113.913612 143.202682,112.635231 
	C142.508713,116.024261 142.045410,118.286758 141.290955,120.776627 
	C139.215027,120.295067 137.430252,119.586136 135.330017,118.926857 
	C135.026978,118.549805 135.039413,118.123093 135.074081,117.377365 
	C135.869186,116.426270 136.642059,115.794205 137.703796,115.072571 
z"/>
<path fill="#62CBDE" opacity="1.000000" stroke="none" 
	d="
M70.986816,151.686859 
	C70.978836,151.920410 70.483154,151.917038 70.235886,151.900116 
	C70.186752,151.655319 70.402969,151.446136 70.819397,151.120819 
	C71.001503,150.985962 70.994804,151.453293 70.986816,151.686859 
z"/>
<path fill="#1F7FC3" opacity="1.000000" stroke="none" 
	d="
M156.906219,80.658264 
	C155.950455,80.980400 154.877167,80.988213 153.401794,80.994743 
	C151.786118,78.703400 150.572525,76.413345 149.358917,74.123291 
	C149.778702,73.754509 150.198471,73.385735 150.618256,73.016953 
	C152.675079,75.459290 154.731888,77.901619 156.906219,80.658264 
z"/>
</svg>