<svg version="1.1" id="Layer_1" xmlns="http://www.w3.org/2000/svg" xmlns:xlink="http://www.w3.org/1999/xlink" x="0px" y="0px"
	 width="100%" viewBox="0 0 722 170" enable-background="new 0 0 722 170" xml:space="preserve">
<path fill="#010101" opacity="1.000000" stroke="none" 
	d="
M536.000000,171.000000 
	C357.383240,171.000000 179.266464,171.000000 1.074852,171.000000 
	C1.074852,114.399193 1.074852,57.798256 1.074852,1.098659 
	C241.666641,1.098659 482.333313,1.098659 722.973633,1.098659 
	C722.973633,57.733555 722.973633,114.366783 722.973633,171.000000 
	C660.798157,171.000000 598.649109,171.000000 536.000000,171.000000 
M150.951401,21.048035 
	C150.951401,21.048035 150.870697,21.088459 150.672073,20.437910 
	C149.452515,18.942450 148.232941,17.446989 146.812210,15.341505 
	C146.018219,14.613442 145.224228,13.885380 144.074829,12.831427 
	C143.245255,14.424242 142.603958,15.655522 141.304871,17.104134 
	C138.385986,22.183018 135.467087,27.261902 132.341568,32.429096 
	C132.341568,32.429096 132.204422,32.607113 131.685944,32.921711 
	C130.809326,34.606655 129.932693,36.291603 128.609390,38.475544 
	C127.389427,41.282013 126.169464,44.088482 124.285637,47.084141 
	C120.179405,54.406876 116.073174,61.729610 112.041641,69.028046 
	C112.041641,69.028046 112.030357,68.950294 111.342667,69.086540 
	C106.353233,77.738564 101.363808,86.390587 96.071220,95.466736 
	C96.071342,95.640518 96.071465,95.814301 95.833076,96.249084 
	C95.833076,96.249084 95.882935,96.599106 95.344292,97.065750 
	C94.135223,99.296082 92.926163,101.526413 91.161484,104.162704 
	C87.805786,110.196327 84.450089,116.229950 80.586151,122.617432 
	C80.017593,123.724373 79.449036,124.831314 78.967117,125.965530 
	C78.967117,125.965530 78.924858,125.885139 78.312035,126.200279 
	C74.213844,133.622269 70.115654,141.044266 65.832687,148.800903 
	C70.081581,148.800903 73.548538,148.800903 77.940224,148.949280 
	C90.358429,148.975754 102.776634,149.002228 115.753609,149.577805 
	C120.790474,149.468262 125.827347,149.358719 131.615921,149.393860 
	C132.121704,149.346329 132.627472,149.298798 133.938644,149.646347 
	C137.265884,149.545456 140.593140,149.444580 144.546570,149.427231 
	C144.963043,149.380615 145.379501,149.334000 146.692032,149.681107 
	C172.265045,149.681107 197.838043,149.681107 224.736328,149.681107 
	C220.627396,142.916702 217.315933,137.465149 213.885773,131.302246 
	C209.189087,122.793106 204.529846,114.262764 199.739426,105.806725 
	C199.245224,104.934357 197.968903,104.505074 196.978638,103.178719 
	C195.328522,101.052620 193.678406,98.926529 191.939575,96.148552 
	C192.330750,93.817802 192.666336,91.476059 193.124680,89.158592 
	C194.079712,84.329926 192.962296,83.372559 187.660965,84.458061 
	C184.094696,78.653770 180.528412,72.849487 176.842773,66.473030 
	C176.524185,66.004623 176.205612,65.536217 175.671661,64.399780 
	C173.455048,60.593262 171.238434,56.786739 168.887146,52.286312 
	C166.271790,47.844112 163.656433,43.401913 160.923309,38.258457 
	C158.912521,34.908867 156.901733,31.559278 154.904495,28.112635 
	C154.904495,28.112635 154.808456,28.093159 154.678665,27.445232 
	C153.751465,26.011129 152.824280,24.577026 151.739944,22.606936 
	C151.681915,22.430027 151.623901,22.253120 151.697128,21.609253 
	C151.563309,21.252089 151.306793,21.094034 150.951401,21.048035 
M589.685547,66.280624 
	C584.028687,66.148849 578.525452,66.536530 575.510254,72.373238 
	C570.117432,82.812370 576.234070,93.140884 587.880127,93.260757 
	C597.033203,93.354973 606.189331,93.369911 615.341492,93.238976 
	C619.250122,93.183060 620.680725,94.926094 620.662842,98.666931 
	C620.645508,102.307732 619.473206,104.210693 615.440186,104.138985 
	C605.956238,103.970360 596.466919,104.121544 586.980774,104.032997 
	C585.762451,104.021622 583.939697,103.734879 583.438049,102.928215 
	C580.909485,98.862450 577.627625,100.802063 574.400635,101.007370 
	C575.736328,109.059410 578.851624,111.939110 586.265381,111.997070 
	C596.417419,112.076447 606.588867,112.358467 616.712769,111.818001 
	C619.972778,111.643959 623.963745,109.921478 626.119019,107.545517 
	C630.289307,102.948303 629.596008,96.944496 627.423645,91.550728 
	C625.453491,86.658813 620.979431,85.179268 615.976990,85.176216 
	C606.490051,85.170418 597.000549,85.040955 587.517395,85.229141 
	C583.515930,85.308548 582.240906,83.553352 582.231018,79.857536 
	C582.221191,76.170074 583.523743,74.309814 587.478455,74.362946 
	C596.797241,74.488152 606.119202,74.367004 615.439148,74.437637 
	C616.714600,74.447304 618.687988,74.570892 619.142090,75.344162 
	C621.560913,79.463188 625.142944,77.564789 628.404480,77.777527 
	C627.473877,69.622025 624.147583,66.457085 616.105408,66.320290 
	C607.619507,66.175941 599.129333,66.282372 589.685547,66.280624 
M273.894135,110.224129 
	C273.894135,101.592476 273.894135,92.960823 273.894135,83.120819 
	C280.767181,92.582314 286.884430,101.040161 293.044617,109.466591 
	C295.729095,113.138618 298.603851,113.172081 301.241425,109.546356 
	C305.836060,103.230377 310.352844,96.857841 314.927917,90.527565 
	C316.389160,88.505730 317.931702,86.542686 319.437073,84.552742 
	C319.787323,84.716011 320.137573,84.879272 320.487823,85.042542 
	C320.487823,93.946747 320.487823,102.850952 320.487823,111.718170 
	C323.371704,111.718170 325.780365,111.718170 328.238190,111.718170 
	C328.238190,96.503075 328.238190,81.585564 328.238190,66.714439 
	C324.412781,65.645195 322.001617,66.432076 319.681244,69.821533 
	C312.562347,80.220436 304.951721,90.282722 297.257019,100.854118 
	C296.032837,99.285919 294.885040,97.906975 293.835938,96.456635 
	C287.503052,87.701469 281.056549,79.023392 274.945160,70.115685 
	C272.656189,66.779366 270.102051,65.444565 266.033478,66.639626 
	C266.033478,81.615112 266.033478,96.656746 266.033478,112.384811 
	C268.887329,111.940735 271.360565,111.555878 273.894135,110.224129 
M383.401398,112.017090 
	C385.811798,112.017090 388.222198,112.017090 390.413025,112.017090 
	C390.413025,108.963524 390.413025,106.699730 390.413025,103.917305 
	C376.055817,103.917305 362.018524,103.917305 348.125854,103.917305 
	C348.125854,100.088600 348.125854,96.797890 348.125854,93.127892 
	C360.634735,93.127892 372.896851,93.127892 385.372711,93.127892 
	C385.372711,90.347382 385.372711,87.955185 385.372711,85.189575 
	C372.828888,85.189575 360.584351,85.189575 348.143677,85.189575 
	C348.143677,81.403030 348.143677,77.995193 348.143677,74.112106 
	C362.436493,74.112106 376.483917,74.112106 390.436432,74.112106 
	C390.436432,71.362831 390.436432,69.093964 390.436432,66.594002 
	C373.462433,66.594002 356.778717,66.594002 340.105835,66.594002 
	C340.105835,81.926605 340.105835,96.919365 340.105835,112.017181 
	C354.468781,112.017181 368.448486,112.017181 383.401398,112.017090 
M561.147461,74.342606 
	C562.599121,74.271576 564.050781,74.200546 565.298096,74.139511 
	C565.298096,71.357063 565.298096,68.968056 565.298096,66.432678 
	C548.400146,66.432678 531.932495,66.432678 515.103394,66.432678 
	C515.103394,81.508629 515.103394,96.571014 515.103394,111.756500 
	C531.840637,111.756500 548.588013,111.756500 565.346802,111.756500 
	C565.346802,109.099670 565.346802,106.726692 565.346802,104.015137 
	C551.060120,104.015137 537.141418,104.015137 523.305054,104.015137 
	C523.305054,100.243134 523.305054,96.831001 523.305054,93.137428 
	C535.753052,93.137428 547.873901,93.137428 560.192749,93.137428 
	C560.192749,90.335052 560.192749,87.827911 560.192749,84.977310 
	C547.661682,84.977310 535.554016,84.977310 523.237915,84.977310 
	C523.237915,81.367493 523.237915,78.104980 523.237915,74.344360 
	C535.645325,74.344360 547.932800,74.344360 561.147461,74.342606 
M504.643860,95.391998 
	C504.234680,93.859116 503.378082,92.289192 503.501373,90.800415 
	C503.851746,86.568947 505.016541,82.378937 505.101471,78.157333 
	C505.242371,71.155403 501.282715,66.627632 494.269989,66.456169 
	C479.975677,66.106659 465.666809,66.351532 451.046875,66.351532 
	C451.046875,81.628334 451.046875,96.645142 451.046875,111.644348 
	C453.846558,111.644348 456.398895,111.644348 459.247223,111.644348 
	C459.247223,106.205734 459.247223,101.134384 459.247223,95.929901 
	C470.382751,95.929901 481.202850,96.009644 492.020691,95.888115 
	C495.988495,95.843536 497.353333,97.645943 497.176941,101.383156 
	C497.014221,104.830246 497.142334,108.291061 497.142334,111.806969 
	C500.019928,111.806969 502.444397,111.806969 504.822632,111.806969 
	C504.822632,106.476036 504.822632,101.352272 504.643860,95.391998 
M646.490967,91.933655 
	C642.201416,98.392052 637.911804,104.850449 633.517273,111.466965 
	C639.905273,113.206314 644.602234,112.090324 647.176025,105.922180 
	C648.446167,102.878235 650.836853,102.262260 653.990112,102.342857 
	C662.301086,102.555290 670.629639,102.211678 678.931396,102.560883 
	C680.967712,102.646545 683.900146,104.037521 684.749084,105.688087 
	C687.826904,111.672333 692.372437,113.217545 698.607788,111.724754 
	C698.479065,111.266098 698.459229,110.744110 698.211060,110.376053 
	C688.756531,96.351425 679.327209,82.309372 669.773743,68.352287 
	C667.571106,65.134247 664.643982,65.340332 662.315918,68.707512 
	C657.124573,76.215607 652.028564,83.789627 646.490967,91.933655 
M439.875366,66.284142 
	C425.142822,66.284142 410.410278,66.284142 395.662720,66.284142 
	C395.662720,69.299858 395.662720,71.575867 395.662720,74.412895 
	C402.449585,74.412895 408.996094,74.412895 415.844177,74.412895 
	C415.844177,87.232315 415.844177,99.492447 415.844177,111.838882 
	C418.611816,111.838882 421.058655,111.838882 424.077515,111.838882 
	C424.077515,99.297104 424.077515,86.926186 424.077515,74.165894 
	C431.050385,74.165894 437.455048,74.165894 443.930908,74.165894 
	C443.930908,71.322601 443.930908,68.887360 443.930908,66.282845 
	C442.675964,66.282845 441.684540,66.282845 439.875366,66.284142 
z"/>
<path fill="#F5F2F7" opacity="1.000000" stroke="none" 
	d="
M590.163269,66.279938 
	C599.129333,66.282372 607.619507,66.175941 616.105408,66.320290 
	C624.147583,66.457085 627.473877,69.622025 628.404480,77.777527 
	C625.142944,77.564789 621.560913,79.463188 619.142090,75.344162 
	C618.687988,74.570892 616.714600,74.447304 615.439148,74.437637 
	C606.119202,74.367004 596.797241,74.488152 587.478455,74.362946 
	C583.523743,74.309814 582.221191,76.170074 582.231018,79.857536 
	C582.240906,83.553352 583.515930,85.308548 587.517395,85.229141 
	C597.000549,85.040955 606.490051,85.170418 615.976990,85.176216 
	C620.979431,85.179268 625.453491,86.658813 627.423645,91.550728 
	C629.596008,96.944496 630.289307,102.948303 626.119019,107.545517 
	C623.963745,109.921478 619.972778,111.643959 616.712769,111.818001 
	C606.588867,112.358467 596.417419,112.076447 586.265381,111.997070 
	C578.851624,111.939110 575.736328,109.059410 574.400635,101.007370 
	C577.627625,100.802063 580.909485,98.862450 583.438049,102.928215 
	C583.939697,103.734879 585.762451,104.021622 586.980774,104.032997 
	C596.466919,104.121544 605.956238,103.970360 615.440186,104.138985 
	C619.473206,104.210693 620.645508,102.307732 620.662842,98.666931 
	C620.680725,94.926094 619.250122,93.183060 615.341492,93.238976 
	C606.189331,93.369911 597.033203,93.354973 587.880127,93.260757 
	C576.234070,93.140884 570.117432,82.812370 575.510254,72.373238 
	C578.525452,66.536530 584.028687,66.148849 590.163269,66.279938 
z"/>
<path fill="#F5F2F7" opacity="1.000000" stroke="none" 
	d="
M273.863953,110.697578 
	C271.360565,111.555878 268.887329,111.940735 266.033478,112.384811 
	C266.033478,96.656746 266.033478,81.615112 266.033478,66.639626 
	C270.102051,65.444565 272.656189,66.779366 274.945160,70.115685 
	C281.056549,79.023392 287.503052,87.701469 293.835938,96.456635 
	C294.885040,97.906975 296.032837,99.285919 297.257019,100.854118 
	C304.951721,90.282722 312.562347,80.220436 319.681244,69.821533 
	C322.001617,66.432076 324.412781,65.645195 328.238190,66.714439 
	C328.238190,81.585564 328.238190,96.503075 328.238190,111.718170 
	C325.780365,111.718170 323.371704,111.718170 320.487823,111.718170 
	C320.487823,102.850952 320.487823,93.946747 320.487823,85.042542 
	C320.137573,84.879272 319.787323,84.716011 319.437073,84.552742 
	C317.931702,86.542686 316.389160,88.505730 314.927917,90.527565 
	C310.352844,96.857841 305.836060,103.230377 301.241425,109.546356 
	C298.603851,113.172081 295.729095,113.138618 293.044617,109.466591 
	C286.884430,101.040161 280.767181,92.582314 273.894135,83.120819 
	C273.894135,92.960823 273.894135,101.592476 273.863953,110.697578 
z"/>
<path fill="#F5F2F7" opacity="1.000000" stroke="none" 
	d="
M382.914795,112.017136 
	C368.448486,112.017181 354.468781,112.017181 340.105835,112.017181 
	C340.105835,96.919365 340.105835,81.926605 340.105835,66.594002 
	C356.778717,66.594002 373.462433,66.594002 390.436432,66.594002 
	C390.436432,69.093964 390.436432,71.362831 390.436432,74.112106 
	C376.483917,74.112106 362.436493,74.112106 348.143677,74.112106 
	C348.143677,77.995193 348.143677,81.403030 348.143677,85.189575 
	C360.584351,85.189575 372.828888,85.189575 385.372711,85.189575 
	C385.372711,87.955185 385.372711,90.347382 385.372711,93.127892 
	C372.896851,93.127892 360.634735,93.127892 348.125854,93.127892 
	C348.125854,96.797890 348.125854,100.088600 348.125854,103.917305 
	C362.018524,103.917305 376.055817,103.917305 390.413025,103.917305 
	C390.413025,106.699730 390.413025,108.963524 390.413025,112.017090 
	C388.222198,112.017090 385.811798,112.017090 382.914795,112.017136 
z"/>
<path fill="#F5F2F7" opacity="1.000000" stroke="none" 
	d="
M560.683838,74.343483 
	C547.932800,74.344360 535.645325,74.344360 523.237915,74.344360 
	C523.237915,78.104980 523.237915,81.367493 523.237915,84.977310 
	C535.554016,84.977310 547.661682,84.977310 560.192749,84.977310 
	C560.192749,87.827911 560.192749,90.335052 560.192749,93.137428 
	C547.873901,93.137428 535.753052,93.137428 523.305054,93.137428 
	C523.305054,96.831001 523.305054,100.243134 523.305054,104.015137 
	C537.141418,104.015137 551.060120,104.015137 565.346802,104.015137 
	C565.346802,106.726692 565.346802,109.099670 565.346802,111.756500 
	C548.588013,111.756500 531.840637,111.756500 515.103394,111.756500 
	C515.103394,96.571014 515.103394,81.508629 515.103394,66.432678 
	C531.932495,66.432678 548.400146,66.432678 565.298096,66.432678 
	C565.298096,68.968056 565.298096,71.357063 565.298096,74.139511 
	C564.050781,74.200546 562.599121,74.271576 560.683838,74.343483 
z"/>
<path fill="#F6F3F8" opacity="1.000000" stroke="none" 
	d="
M504.733246,95.810249 
	C504.822632,101.352272 504.822632,106.476036 504.822632,111.806969 
	C502.444397,111.806969 500.019928,111.806969 497.142334,111.806969 
	C497.142334,108.291061 497.014221,104.830246 497.176941,101.383156 
	C497.353333,97.645943 495.988495,95.843536 492.020691,95.888115 
	C481.202850,96.009644 470.382751,95.929901 459.247223,95.929901 
	C459.247223,101.134384 459.247223,106.205734 459.247223,111.644348 
	C456.398895,111.644348 453.846558,111.644348 451.046875,111.644348 
	C451.046875,96.645142 451.046875,81.628334 451.046875,66.351532 
	C465.666809,66.351532 479.975677,66.106659 494.269989,66.456169 
	C501.282715,66.627632 505.242371,71.155403 505.101471,78.157333 
	C505.016541,82.378937 503.851746,86.568947 503.501373,90.800415 
	C503.378082,92.289192 504.234680,93.859116 504.733246,95.810249 
M492.104187,88.008636 
	C498.312836,88.155739 496.992279,83.607574 497.183411,79.940384 
	C497.337646,76.981194 496.867523,74.412392 493.221863,74.386108 
	C481.961670,74.304939 470.700500,74.356476 459.217590,74.356476 
	C459.217590,79.010338 459.217590,83.240562 459.217590,88.009247 
	C469.993866,88.009247 480.581787,88.009247 492.104187,88.008636 
z"/>
<path fill="#030E1B" opacity="1.000000" stroke="none" 
	d="
M188.135437,84.968117 
	C192.962296,83.372559 194.079712,84.329926 193.124680,89.158592 
	C192.666336,91.476059 192.330750,93.817802 191.695282,96.607445 
	C190.605240,98.200714 189.759491,99.335083 188.665070,100.659882 
	C188.286118,101.237297 188.155823,101.624290 187.927872,102.122452 
	C187.830231,102.233620 187.883392,102.524727 187.628479,102.749619 
	C186.907196,103.972466 186.440842,104.970406 185.719574,106.104179 
	C184.963669,106.817451 184.462677,107.394882 183.603958,108.064896 
	C178.841812,110.346474 176.067459,107.231140 172.896790,104.688278 
	C169.797119,98.971268 166.817749,93.579948 163.838364,88.188629 
	C163.249481,88.106758 162.660583,88.024895 162.071686,87.943031 
	C159.628906,94.261055 157.186127,100.579086 154.484940,107.133957 
	C152.482147,110.486969 150.737762,113.603142 148.625031,116.771149 
	C146.775970,115.549080 145.295273,114.275169 143.798492,112.601372 
	C142.742981,99.430916 141.703522,86.660355 140.664062,73.889786 
	C140.240234,73.798401 139.816391,73.707016 139.392548,73.615631 
	C137.913666,76.139366 135.926712,78.499016 135.048935,81.216896 
	C132.146484,90.203720 128.932236,99.183174 127.159744,108.419174 
	C124.657471,121.458069 123.335205,134.723419 121.345810,148.039978 
	C121.024559,148.478287 121.038467,148.760132 120.861694,149.094498 
	C119.379280,148.835968 118.260048,148.516464 117.031151,147.818069 
	C115.923805,143.441360 114.208351,139.472137 114.047760,135.440979 
	C113.165154,113.285782 112.663055,91.115440 112.030350,68.950294 
	C112.030357,68.950294 112.041641,69.028046 112.270599,68.837143 
	C113.627869,68.775345 114.756172,68.904442 115.846344,69.496597 
	C116.479813,92.372490 114.354828,114.900238 119.130028,137.237488 
	C119.471405,134.510239 119.812782,131.782990 120.330589,128.686707 
	C122.113503,112.217033 124.545609,96.289528 130.628754,80.813683 
	C133.774261,75.773056 134.826233,69.334297 141.949829,68.401970 
	C142.376175,68.758354 142.681519,68.893982 143.116852,69.385681 
	C144.091385,77.446808 145.034317,85.142738 145.748672,92.859833 
	C146.300751,98.823715 146.566391,104.814110 146.959366,110.792717 
	C147.529678,110.837448 148.099991,110.882179 148.670288,110.926910 
	C150.117188,107.114250 151.317459,103.183693 153.070190,99.517235 
	C155.547882,94.334221 158.433716,89.346313 161.511734,84.241081 
	C163.519943,84.541725 165.161484,84.876289 166.934601,85.483971 
	C167.700989,86.523300 168.335800,87.289513 168.984711,88.029190 
	C168.998825,88.002663 168.941681,88.021240 168.985153,88.349976 
	C169.672134,89.804993 170.315643,90.931274 170.978333,92.031830 
	C170.997498,92.006096 170.933762,92.013695 170.946136,92.319183 
	C171.293579,93.105042 171.628632,93.585403 171.979462,94.036942 
	C171.995239,94.008110 171.929535,94.009445 171.957077,94.315231 
	C172.300308,95.129677 172.616013,95.638329 172.957397,96.375809 
	C172.983063,96.604637 173.194275,97.013878 173.223206,97.258713 
	C173.404160,97.814163 173.639771,98.036049 174.055267,98.489792 
	C176.200760,100.790077 178.249939,102.769753 180.299118,104.749435 
	C181.907700,102.232964 183.516266,99.716499 185.387024,96.961845 
	C186.080185,95.134460 186.511154,93.545265 187.019287,91.783325 
	C187.096451,91.610580 187.125031,91.233276 187.393585,90.928955 
	C187.819916,88.739136 187.977676,86.853622 188.135437,84.968117 
z"/>
<path fill="#F5F2F7" opacity="1.000000" stroke="none" 
	d="
M646.692383,91.635223 
	C652.028564,83.789627 657.124573,76.215607 662.315918,68.707512 
	C664.643982,65.340332 667.571106,65.134247 669.773743,68.352287 
	C679.327209,82.309372 688.756531,96.351425 698.211060,110.376053 
	C698.459229,110.744110 698.479065,111.266098 698.607788,111.724754 
	C692.372437,113.217545 687.826904,111.672333 684.749084,105.688087 
	C683.900146,104.037521 680.967712,102.646545 678.931396,102.560883 
	C670.629639,102.211678 662.301086,102.555290 653.990112,102.342857 
	C650.836853,102.262260 648.446167,102.878235 647.176025,105.922180 
	C644.602234,112.090324 639.905273,113.206314 633.517273,111.466965 
	C637.911804,104.850449 642.201416,98.392052 646.692383,91.635223 
M675.559082,94.323769 
	C675.675598,93.580399 676.157532,92.598328 675.852051,92.130608 
	C672.807983,87.470604 669.633972,82.895432 666.131592,77.760994 
	C662.408142,83.346252 659.008362,88.446014 655.085205,94.330849 
	C662.446228,94.330849 668.581360,94.330849 675.559082,94.323769 
z"/>
<path fill="#3C9CC8" opacity="1.000000" stroke="none" 
	d="
M121.508469,147.891953 
	C123.335205,134.723419 124.657471,121.458069 127.159744,108.419174 
	C128.932236,99.183174 132.146484,90.203720 135.048935,81.216896 
	C135.926712,78.499016 137.913666,76.139366 139.392548,73.615631 
	C139.816391,73.707016 140.240234,73.798401 140.664062,73.889786 
	C141.703522,86.660355 142.742981,99.430916 143.460571,112.516945 
	C140.257629,107.187363 136.298172,101.849113 138.838272,94.812752 
	C139.132172,93.998657 137.649796,92.543327 136.990967,91.385284 
	C136.588928,92.547630 136.133087,93.694908 135.801956,94.877121 
	C135.538498,95.817741 135.240891,96.808609 135.279617,97.764160 
	C135.499054,103.176651 135.082748,108.775230 136.415344,113.912956 
	C137.057449,116.388504 137.864044,118.149254 136.811798,120.667595 
	C136.080032,122.418999 136.003220,124.549835 136.059555,126.498856 
	C136.135483,129.125763 136.799454,131.734589 136.891251,134.362335 
	C137.056580,139.095291 136.984375,143.836517 136.682373,148.658447 
	C135.279984,148.912155 134.206619,149.081711 133.133255,149.251266 
	C132.627472,149.298798 132.121704,149.346329 130.973602,149.172913 
	C129.273865,148.905701 128.216431,148.859436 127.012802,148.687073 
	C126.526283,148.641556 126.185959,148.722153 125.509888,148.811859 
	C124.502632,148.824158 123.831131,148.827332 122.921509,148.613525 
	C122.291763,148.228333 121.900116,148.060150 121.508469,147.891953 
z"/>
<path fill="#F4F0F5" opacity="1.000000" stroke="none" 
	d="
M440.284241,66.283493 
	C441.684540,66.282845 442.675964,66.282845 443.930908,66.282845 
	C443.930908,68.887360 443.930908,71.322601 443.930908,74.165894 
	C437.455048,74.165894 431.050385,74.165894 424.077515,74.165894 
	C424.077515,86.926186 424.077515,99.297104 424.077515,111.838882 
	C421.058655,111.838882 418.611816,111.838882 415.844177,111.838882 
	C415.844177,99.492447 415.844177,87.232315 415.844177,74.412895 
	C408.996094,74.412895 402.449585,74.412895 395.662720,74.412895 
	C395.662720,71.575867 395.662720,69.299858 395.662720,66.284142 
	C410.410278,66.284142 425.142822,66.284142 440.284241,66.283493 
z"/>
<path fill="#42A6CC" opacity="1.000000" stroke="none" 
	d="
M130.411255,81.081955 
	C124.545609,96.289528 122.113503,112.217033 119.924438,128.586746 
	C118.907356,128.212997 118.135262,127.592644 118.090736,126.923843 
	C117.661819,120.480972 117.154175,114.032921 117.058586,107.580582 
	C116.893456,96.434090 117.052910,85.283051 116.952164,74.135048 
	C116.936768,72.431465 116.256973,70.733894 115.884476,69.033539 
	C114.756172,68.904442 113.627869,68.775345 112.233253,68.849289 
	C116.073174,61.729610 120.179405,54.406876 124.777863,47.311287 
	C129.070999,51.115490 125.400963,53.196739 124.220047,55.483204 
	C125.549316,58.009571 126.712776,60.581055 126.905205,63.223259 
	C127.250313,67.961769 127.116852,72.745941 126.974625,77.504799 
	C126.897789,80.075859 127.862671,81.235184 130.411255,81.081955 
z"/>
<path fill="#4BBED9" opacity="1.000000" stroke="none" 
	d="
M95.882935,96.599106 
	C95.882935,96.599106 95.833076,96.249084 96.132034,96.027649 
	C96.666862,95.653870 96.817818,95.441261 97.228394,95.075600 
	C99.301857,92.820610 100.937973,90.572861 102.809761,88.542374 
	C103.469795,87.826370 104.931122,87.088211 105.617668,87.367043 
	C106.333809,87.657898 106.896500,89.146858 106.942566,90.139114 
	C107.355858,99.041550 108.878494,108.132629 107.599236,116.802971 
	C106.423286,124.773087 107.657547,132.508041 107.077011,140.330383 
	C106.620499,146.481476 105.328789,148.006226 98.971863,147.536102 
	C95.234535,144.196747 96.146812,140.018829 95.965614,136.080307 
	C95.834892,133.239075 95.383911,130.412598 94.995758,126.843895 
	C97.629456,124.495171 97.596779,121.099281 95.754318,117.220154 
	C95.038254,115.712540 95.069283,113.683159 95.260002,111.946350 
	C95.662926,108.277031 96.395195,104.643860 96.948952,100.619919 
	C96.564674,99.029015 96.223801,97.814064 95.882935,96.599106 
M104.192215,96.582092 
	C104.196640,96.205330 104.201065,95.828568 104.205482,95.451805 
	C104.049149,95.450081 103.756935,95.437729 103.756119,95.448166 
	C103.726807,95.823082 103.724693,96.200134 104.192215,96.582092 
z"/>
<path fill="#4CB1D0" opacity="1.000000" stroke="none" 
	d="
M98.978348,147.917770 
	C105.328789,148.006226 106.620499,146.481476 107.077011,140.330383 
	C107.657547,132.508041 106.423286,124.773087 107.599236,116.802971 
	C108.878494,108.132629 107.355858,99.041550 106.942566,90.139114 
	C106.896500,89.146858 106.333809,87.657898 105.617668,87.367043 
	C104.931122,87.088211 103.469795,87.826370 102.809761,88.542374 
	C100.937973,90.572861 99.301857,92.820610 97.101791,95.043373 
	C96.630638,95.103935 96.374390,95.042610 96.374390,95.042603 
	C101.363808,86.390587 106.353233,77.738564 111.686508,69.018417 
	C112.663055,91.115440 113.165154,113.285782 114.047760,135.440979 
	C114.208351,139.472137 115.923805,143.441360 116.816917,147.979462 
	C116.206520,148.689392 115.700684,148.859055 115.194839,149.028717 
	C102.776634,149.002228 90.358429,148.975754 77.473267,148.676132 
	C77.006310,148.402985 77.002922,148.004959 77.401039,147.999191 
	C78.859940,147.975113 79.920715,147.956802 81.442833,147.955704 
	C85.598564,147.954666 89.292953,147.936386 93.416122,147.940002 
	C95.556053,147.947174 97.267197,147.932480 98.978348,147.917770 
z"/>
<path fill="#3498CB" opacity="1.000000" stroke="none" 
	d="
M137.011398,148.574280 
	C136.984375,143.836517 137.056580,139.095291 136.891251,134.362335 
	C136.799454,131.734589 136.135483,129.125763 136.059555,126.498856 
	C136.003220,124.549835 136.080032,122.418999 136.811798,120.667595 
	C137.864044,118.149254 137.057449,116.388504 136.415344,113.912956 
	C135.082748,108.775230 135.499054,103.176651 135.279617,97.764160 
	C135.240891,96.808609 135.538498,95.817741 135.801956,94.877121 
	C136.133087,93.694908 136.588928,92.547630 136.990967,91.385284 
	C137.649796,92.543327 139.132172,93.998657 138.838272,94.812752 
	C136.298172,101.849113 140.257629,107.187363 143.476654,112.916832 
	C145.295273,114.275169 146.775970,115.549080 148.444031,117.104523 
	C143.292511,119.840088 145.161102,124.417816 145.325043,128.517136 
	C145.592361,135.201172 145.807770,141.887283 145.956238,148.741974 
	C145.867386,148.911423 145.795975,149.287384 145.795975,149.287384 
	C145.379501,149.334000 144.963043,149.380615 143.911774,149.204895 
	C141.188446,148.846481 139.099915,148.710388 137.011398,148.574280 
z"/>
<path fill="#3B9ECA" opacity="1.000000" stroke="none" 
	d="
M130.628754,80.813683 
	C127.862671,81.235184 126.897789,80.075859 126.974625,77.504799 
	C127.116852,72.745941 127.250313,67.961769 126.905205,63.223259 
	C126.712776,60.581055 125.549316,58.009571 124.220047,55.483204 
	C125.400963,53.196739 129.070999,51.115490 125.109802,47.216690 
	C126.169464,44.088482 127.389427,41.282013 129.193848,38.189133 
	C132.093689,36.827778 133.853394,35.498264 132.204422,32.607113 
	C132.204422,32.607113 132.341568,32.429096 132.761169,32.481243 
	C136.565720,30.079214 136.423843,33.095646 136.808533,35.266396 
	C136.293411,39.894291 135.786346,44.249256 135.716980,48.611187 
	C135.674622,51.275345 136.554001,53.948734 136.569717,56.620628 
	C136.588745,59.850605 136.132355,63.083385 135.898026,66.104767 
	C138.415161,66.845894 140.243988,67.384361 142.011871,67.987480 
	C141.950928,68.052132 141.828812,68.181206 141.828812,68.181206 
	C134.826233,69.334297 133.774261,75.773056 130.628754,80.813683 
z"/>
<path fill="#1D75BC" opacity="1.000000" stroke="none" 
	d="
M185.124847,97.200027 
	C183.516266,99.716499 181.907700,102.232964 180.299118,104.749435 
	C178.249939,102.769753 176.200760,100.790077 174.000488,98.254105 
	C173.712936,97.391373 173.494553,97.163391 173.194275,97.013878 
	C173.194275,97.013878 172.983063,96.604637 172.965866,96.054550 
	C172.608948,95.006126 172.269241,94.507790 171.929535,94.009445 
	C171.929535,94.009445 171.995239,94.008110 171.979446,93.724792 
	C171.620361,92.965546 171.277054,92.489624 170.933762,92.013695 
	C170.933762,92.013695 170.997498,92.006096 171.003525,91.650345 
	C170.320267,90.203468 169.630966,89.112358 168.941681,88.021240 
	C168.941681,88.021240 168.998825,88.002663 169.003693,87.650604 
	C168.999603,86.541473 168.990646,85.784409 169.313385,84.870544 
	C170.762848,82.313278 172.399094,80.011780 172.880524,77.489830 
	C173.661194,73.400108 173.684570,69.165825 174.337616,65.003937 
	C175.060715,65.032806 175.473862,65.050308 175.887024,65.067810 
	C176.205612,65.536217 176.524185,66.004623 176.892548,67.148399 
	C177.961044,70.365128 178.909653,72.937378 180.013000,75.441444 
	C182.340775,80.724297 184.749512,85.971466 187.125031,91.233276 
	C187.125031,91.233276 187.096451,91.610580 186.652115,91.880615 
	C185.846802,93.833778 185.485825,95.516899 185.124847,97.200027 
z"/>
<path fill="#1754A5" opacity="1.000000" stroke="none" 
	d="
M197.055481,103.870201 
	C197.968903,104.505074 199.245224,104.934357 199.739426,105.806725 
	C204.529846,114.262764 209.189087,122.793106 213.896179,132.019379 
	C212.278107,134.954086 209.248947,137.241043 209.354553,139.372711 
	C209.506927,142.448746 211.934052,145.412079 213.556854,148.767410 
	C209.933090,148.767410 205.414276,148.767410 201.090149,148.461899 
	C201.193283,143.743546 201.225281,139.323380 200.963593,134.920639 
	C200.807968,132.302216 200.351517,129.671387 199.721558,127.122444 
	C199.326767,125.524986 198.358719,124.069214 197.647873,122.549866 
	C199.262680,123.307312 200.867844,124.087151 202.504730,124.793434 
	C202.705704,124.880150 203.076431,124.573456 204.494110,123.969711 
	C202.008240,120.353035 199.664078,116.942520 197.868515,114.330185 
	C197.580078,110.619431 197.317780,107.244820 197.055481,103.870201 
z"/>
<path fill="#1563B7" opacity="1.000000" stroke="none" 
	d="
M197.017059,103.524460 
	C197.317780,107.244820 197.580078,110.619431 197.868515,114.330185 
	C199.664078,116.942520 202.008240,120.353035 204.494110,123.969711 
	C203.076431,124.573456 202.705704,124.880150 202.504730,124.793434 
	C200.867844,124.087151 199.262680,123.307312 197.647873,122.549866 
	C198.358719,124.069214 199.326767,125.524986 199.721558,127.122444 
	C200.351517,129.671387 200.807968,132.302216 200.963593,134.920639 
	C201.225281,139.323380 201.193283,143.743546 200.649384,148.511444 
	C197.037354,148.811783 194.060760,148.757065 191.243835,148.383408 
	C191.927185,145.485245 192.895538,142.906357 192.897430,140.326752 
	C192.905502,129.301666 192.375793,118.270958 192.611420,107.254471 
	C192.680756,104.012405 191.865982,102.618591 188.976807,101.608109 
	C188.938675,100.975708 188.926208,100.722580 188.913727,100.469452 
	C189.759491,99.335083 190.605240,98.200714 191.739624,96.933388 
	C193.678406,98.926529 195.328522,101.052620 197.017059,103.524460 
z"/>
<path fill="#57C9DE" opacity="1.000000" stroke="none" 
	d="
M92.987350,147.918121 
	C89.292953,147.936386 85.598564,147.954666 81.435478,147.564880 
	C80.311684,143.924683 79.649979,140.693848 79.004021,137.459885 
	C78.635811,135.616409 78.293304,133.767807 77.949501,131.535400 
	C78.281471,129.394577 78.603165,127.639854 78.924858,125.885139 
	C78.924858,125.885139 78.967117,125.965530 79.273376,125.909332 
	C80.084557,124.656609 80.589470,123.460083 81.094391,122.263565 
	C84.450089,116.229950 87.805786,110.196327 91.528862,104.036270 
	C91.896240,103.909836 92.071556,104.067238 92.041687,104.452202 
	C91.783279,107.215523 91.554749,109.593880 91.283844,112.413147 
	C88.535286,113.124046 86.607826,114.500366 89.544830,117.939926 
	C90.029251,118.507240 88.798004,120.325951 88.775826,121.573730 
	C88.618423,130.428024 83.866905,140.039551 92.885185,147.441422 
	C92.983459,147.522095 92.956078,147.755829 92.987350,147.918121 
z"/>
<path fill="#17479C" opacity="1.000000" stroke="none" 
	d="
M191.084183,148.702332 
	C194.060760,148.757065 197.037354,148.811783 200.454697,148.816956 
	C205.414276,148.767410 209.933090,148.767410 213.556854,148.767410 
	C211.934052,145.412079 209.506927,142.448746 209.354553,139.372711 
	C209.248947,137.241043 212.278107,134.954086 213.955536,132.375031 
	C217.315933,137.465149 220.627396,142.916702 224.736328,149.681107 
	C197.838043,149.681107 172.265045,149.681107 146.244003,149.484253 
	C145.795975,149.287384 145.867386,148.911423 146.399826,148.842407 
	C150.272720,148.705124 153.613159,148.636856 157.317871,148.652283 
	C158.428238,148.757019 159.174347,148.778046 160.393158,148.856750 
	C169.251907,148.862595 177.637955,148.810791 186.442749,148.794525 
	C188.269043,148.787476 189.676605,148.744904 191.084183,148.702332 
z"/>
<path fill="#358CC4" opacity="1.000000" stroke="none" 
	d="
M151.565872,22.076212 
	C151.623901,22.253120 151.681915,22.430027 151.824982,23.225628 
	C152.876175,25.260599 153.842316,26.676882 154.808456,28.093161 
	C154.808456,28.093159 154.904495,28.112635 154.894791,28.497658 
	C155.297729,30.903971 155.710358,32.925259 155.773407,35.133701 
	C154.949829,37.880814 154.475830,40.440777 153.849426,43.303123 
	C151.467529,45.403374 149.238037,47.201241 146.756195,48.998676 
	C146.335693,48.998119 146.167542,48.997990 146.005066,48.626171 
	C146.346756,47.346142 146.489639,46.291744 147.048920,45.552250 
	C152.164627,38.788074 152.132584,36.838680 147.053467,30.425016 
	C146.071152,29.184595 145.669495,27.484329 144.991531,25.607491 
	C143.976273,22.441462 142.969482,19.664131 141.962677,16.886803 
	C142.603958,15.655522 143.245255,14.424242 144.074829,12.831427 
	C145.224228,13.885380 146.018219,14.613442 146.995575,15.986112 
	C148.409515,18.116632 149.640106,19.602547 150.870697,21.088459 
	C150.870697,21.088459 150.951401,21.048035 150.986816,21.283745 
	C151.131195,21.775566 151.312424,21.961151 151.565872,22.076212 
z"/>
<path fill="#3C9CC8" opacity="1.000000" stroke="none" 
	d="
M141.633774,16.995468 
	C142.969482,19.664131 143.976273,22.441462 144.629471,25.684593 
	C143.184937,28.434149 142.093994,30.717901 140.709412,33.144424 
	C139.277588,33.856930 138.139404,34.426670 137.001221,34.996410 
	C136.423843,33.095646 136.565720,30.079214 132.864471,32.437088 
	C135.467087,27.261902 138.385986,22.183018 141.633774,16.995468 
z"/>
<path fill="#73ABCC" opacity="1.000000" stroke="none" 
	d="
M78.618446,126.042709 
	C78.603165,127.639854 78.281471,129.394577 77.654068,131.707870 
	C74.361839,137.031616 71.375313,141.796799 68.388786,146.561966 
	C68.709579,147.042969 69.030373,147.523956 69.351166,148.004959 
	C71.901756,148.004959 74.452339,148.004959 77.002922,148.004959 
	C77.002922,148.004959 77.006310,148.402985 77.010902,148.601944 
	C73.548538,148.800903 70.081581,148.800903 65.832687,148.800903 
	C70.115654,141.044266 74.213844,133.622269 78.618446,126.042709 
z"/>
<path fill="#35589C" opacity="1.000000" stroke="none" 
	d="
M187.393585,90.928955 
	C184.749512,85.971466 182.340775,80.724297 180.013000,75.441444 
	C178.909653,72.937378 177.961044,70.365128 176.952240,67.434479 
	C180.528412,72.849487 184.094696,78.653770 187.898193,84.713089 
	C187.977676,86.853622 187.819916,88.739136 187.393585,90.928955 
z"/>
<path fill="#35589C" opacity="1.000000" stroke="none" 
	d="
M161.041092,38.959717 
	C163.656433,43.401913 166.271790,47.844112 168.872711,52.715202 
	C168.858276,53.144096 168.695099,53.308315 168.380920,53.200729 
	C167.402069,53.033012 166.737381,52.972881 166.071259,52.599281 
	C166.052032,51.868279 166.034225,51.450745 165.989258,50.672127 
	C164.212036,46.631195 162.461960,42.951351 160.794235,39.193607 
	C160.876587,39.115711 161.041092,38.959713 161.041092,38.959717 
z"/>
<path fill="#35589C" opacity="1.000000" stroke="none" 
	d="
M175.779343,64.733795 
	C175.473862,65.050308 175.060715,65.032806 174.197800,64.685097 
	C172.085205,60.904099 170.422363,57.453304 168.772827,53.826225 
	C168.786163,53.649948 168.695099,53.308315 168.695099,53.308315 
	C168.695099,53.308315 168.858276,53.144096 168.940048,53.062157 
	C171.238434,56.786739 173.455048,60.593262 175.779343,64.733795 
z"/>
<path fill="#35589C" opacity="1.000000" stroke="none" 
	d="
M156.122986,34.946548 
	C155.710358,32.925259 155.297729,30.903971 154.888016,28.546185 
	C156.901733,31.559278 158.912521,34.908867 160.982208,38.609085 
	C161.041092,38.959713 160.876587,39.115711 160.507080,39.052544 
	C158.799362,37.641762 157.461182,36.294155 156.122986,34.946548 
z"/>
<path fill="#17479C" opacity="1.000000" stroke="none" 
	d="
M115.474228,149.303253 
	C115.700684,148.859055 116.206520,148.689392 116.926590,148.358353 
	C118.260048,148.516464 119.379280,148.835968 121.183983,149.074295 
	C122.299515,148.938904 122.729568,148.884705 123.159622,148.830505 
	C123.831131,148.827332 124.502632,148.824158 125.838409,148.849930 
	C126.721451,148.856995 126.940224,148.835083 127.158989,148.813187 
	C128.216431,148.859436 129.273865,148.905701 130.597748,149.100571 
	C125.827347,149.358719 120.790474,149.468262 115.474228,149.303253 
z"/>
<path fill="#57C9DE" opacity="1.000000" stroke="none" 
	d="
M95.613617,96.832428 
	C96.223801,97.814064 96.564674,99.029015 96.618988,100.673355 
	C94.912132,102.090897 93.491844,103.079063 92.071556,104.067230 
	C92.071556,104.067238 91.896240,103.909836 91.806671,103.833282 
	C92.926163,101.526413 94.135223,99.296082 95.613617,96.832428 
z"/>
<path fill="#17479C" opacity="1.000000" stroke="none" 
	d="
M136.682373,148.658447 
	C139.099915,148.710388 141.188446,148.846481 143.598663,149.163132 
	C140.593140,149.444580 137.265884,149.545456 133.535950,149.448807 
	C134.206619,149.081711 135.279984,148.912155 136.682373,148.658447 
z"/>
<path fill="#3C9CC8" opacity="1.000000" stroke="none" 
	d="
M131.945190,32.764412 
	C133.853394,35.498264 132.093689,36.827778 129.417206,37.939636 
	C129.932693,36.291603 130.809326,34.606655 131.945190,32.764412 
z"/>
<path fill="#35589C" opacity="1.000000" stroke="none" 
	d="
M150.771393,20.763186 
	C149.640106,19.602547 148.409515,18.116632 147.096161,16.291122 
	C148.232941,17.446989 149.452515,18.942450 150.771393,20.763186 
z"/>
<path fill="#35589C" opacity="1.000000" stroke="none" 
	d="
M154.743561,27.769197 
	C153.842316,26.676882 152.876175,25.260599 151.903564,23.493622 
	C152.824280,24.577026 153.751465,26.011129 154.743561,27.769197 
z"/>
<path fill="#73ABCC" opacity="1.000000" stroke="none" 
	d="
M80.840271,122.440498 
	C80.589470,123.460083 80.084557,124.656609 79.230057,125.895691 
	C79.449036,124.831314 80.017593,123.724373 80.840271,122.440498 
z"/>
<path fill="#57C9DE" opacity="1.000000" stroke="none" 
	d="
M96.222809,95.254669 
	C96.374390,95.042610 96.630638,95.103935 96.757248,95.136162 
	C96.817818,95.441261 96.666862,95.653870 96.251282,95.897148 
	C96.071465,95.814301 96.071342,95.640518 96.222809,95.254669 
z"/>
<path fill="#35589C" opacity="1.000000" stroke="none" 
	d="
M151.631500,21.842731 
	C151.312424,21.961151 151.131195,21.775566 150.974884,21.327274 
	C151.306793,21.094034 151.563309,21.252089 151.631500,21.842731 
z"/>
<path fill="#08070A" opacity="1.000000" stroke="none" 
	d="
M491.636963,88.008942 
	C480.581787,88.009247 469.993866,88.009247 459.217590,88.009247 
	C459.217590,83.240562 459.217590,79.010338 459.217590,74.356476 
	C470.700500,74.356476 481.961670,74.304939 493.221863,74.386108 
	C496.867523,74.412392 497.337646,76.981194 497.183411,79.940384 
	C496.992279,83.607574 498.312836,88.155739 491.636963,88.008942 
z"/>
<path fill="#2883C1" opacity="1.000000" stroke="none" 
	d="
M159.920456,148.799088 
	C159.174347,148.778046 158.428238,148.757019 157.314514,148.270569 
	C156.631439,143.185165 156.464569,138.548096 155.935898,133.952637 
	C155.683395,131.757797 154.744034,129.641983 154.109116,127.467506 
	C154.562149,126.061134 156.123474,123.709877 155.503616,122.707771 
	C152.773041,118.293282 155.352509,114.475616 155.977295,110.402458 
	C156.142944,109.322510 155.185242,108.070259 154.743347,106.897118 
	C157.186127,100.579086 159.628906,94.261055 162.071686,87.943031 
	C162.660583,88.024895 163.249481,88.106758 163.838364,88.188629 
	C166.817749,93.579948 169.797119,98.971268 172.736786,104.988007 
	C171.467819,108.074387 170.238571,110.535355 168.717621,113.295975 
	C168.614182,125.040962 168.802460,136.486298 168.553818,147.947083 
	C165.384750,148.241379 162.652603,148.520233 159.920456,148.799088 
z"/>
<path fill="#308CC3" opacity="1.000000" stroke="none" 
	d="
M147.008545,48.999104 
	C149.238037,47.201241 151.467529,45.403374 154.171692,43.481174 
	C154.764130,45.979958 154.969254,48.602604 154.983307,51.226280 
	C155.026154,59.228718 155.487061,67.274796 154.788620,75.216232 
	C154.432251,79.268303 154.781921,81.452278 159.172470,82.242928 
	C159.902084,82.655037 160.459488,82.824890 161.038498,83.315857 
	C161.088425,83.849640 161.116745,84.062317 161.145081,84.275002 
	C158.433716,89.346313 155.547882,94.334221 153.070190,99.517235 
	C151.317459,103.183693 150.117188,107.114250 148.670288,110.926910 
	C148.099991,110.882179 147.529678,110.837448 146.959366,110.792717 
	C146.566391,104.814110 146.300751,98.823715 145.748672,92.859833 
	C145.034317,85.142738 144.091385,77.446808 143.119446,69.136749 
	C142.992020,68.531731 142.990524,68.033966 143.358002,67.950798 
	C144.819824,61.578121 145.914185,55.288612 147.008545,48.999104 
z"/>
<path fill="#196BBA" opacity="1.000000" stroke="none" 
	d="
M191.243835,148.383392 
	C189.676605,148.744904 188.269043,148.787476 186.302307,148.623169 
	C185.522980,148.207596 185.271515,148.048340 184.936920,147.556274 
	C184.256760,144.684296 183.170807,142.209900 183.086533,139.701843 
	C182.842209,132.430176 183.140701,125.140984 182.934219,117.866951 
	C182.845505,114.741821 183.254562,112.485855 186.982498,112.053818 
	C185.594254,111.524078 184.205994,110.994331 183.028229,110.544914 
	C183.418274,109.469986 183.689972,108.721161 183.961670,107.972321 
	C184.462677,107.394882 184.963669,106.817451 186.091858,106.043243 
	C187.107178,104.739220 187.495285,103.631973 187.883392,102.524727 
	C187.883392,102.524727 187.830231,102.233620 188.172089,102.117035 
	C188.513962,102.000450 189.002472,101.987389 189.002472,101.987389 
	C191.865982,102.618591 192.680756,104.012405 192.611420,107.254471 
	C192.375793,118.270958 192.905502,129.301666 192.897430,140.326752 
	C192.895538,142.906357 191.927185,145.485245 191.243835,148.383392 
z"/>
<path fill="#1E73BB" opacity="1.000000" stroke="none" 
	d="
M183.603973,108.064903 
	C183.689972,108.721161 183.418274,109.469986 183.028229,110.544914 
	C184.205994,110.994331 185.594254,111.524078 186.982498,112.053818 
	C183.254562,112.485855 182.845505,114.741821 182.934219,117.866951 
	C183.140701,125.140984 182.842209,132.430176 183.086533,139.701843 
	C183.170807,142.209900 184.256760,144.684296 184.488037,147.575867 
	C181.390549,147.962570 178.690140,147.947449 175.981384,147.516449 
	C175.722839,140.682343 175.390717,134.265915 175.247528,127.845284 
	C175.125977,122.394020 175.222458,116.937897 175.222458,111.279190 
	C172.400940,112.058975 170.705124,112.527641 169.009323,112.996307 
	C170.238571,110.535355 171.467819,108.074387 172.857086,105.313690 
	C176.067459,107.231140 178.841812,110.346474 183.603973,108.064903 
z"/>
<path fill="#2F8FC7" opacity="1.000000" stroke="none" 
	d="
M154.484940,107.133957 
	C155.185242,108.070259 156.142944,109.322510 155.977295,110.402458 
	C155.352509,114.475616 152.773041,118.293282 155.503616,122.707771 
	C156.123474,123.709877 154.562149,126.061134 154.109116,127.467506 
	C154.744034,129.641983 155.683395,131.757797 155.935898,133.952637 
	C156.464569,138.548096 156.631439,143.185165 156.950256,148.186874 
	C153.613159,148.636856 150.272720,148.705124 146.488678,148.672943 
	C145.807770,141.887283 145.592361,135.201172 145.325043,128.517136 
	C145.161102,124.417816 143.292511,119.840088 148.812378,117.052689 
	C150.737762,113.603142 152.482147,110.486969 154.484940,107.133957 
z"/>
<path fill="#5CA4C0" opacity="1.000000" stroke="none" 
	d="
M115.846344,69.496597 
	C116.256973,70.733894 116.936768,72.431465 116.952164,74.135048 
	C117.052910,85.283051 116.893456,96.434090 117.058586,107.580582 
	C117.154175,114.032921 117.661819,120.480972 118.090736,126.923843 
	C118.135262,127.592644 118.907356,128.212997 119.748016,128.955780 
	C119.812782,131.782990 119.471405,134.510239 119.130028,137.237488 
	C114.354828,114.900238 116.479813,92.372490 115.846344,69.496597 
z"/>
<path fill="#3B72A5" opacity="1.000000" stroke="none" 
	d="
M161.511734,84.241081 
	C161.116745,84.062317 161.088425,83.849640 161.397842,83.313309 
	C163.570480,83.489090 166.490265,80.957489 167.018646,84.982468 
	C166.946777,85.058594 166.803040,85.210854 166.803040,85.210854 
	C165.161484,84.876289 163.519943,84.541725 161.511734,84.241081 
z"/>
<path fill="#35589C" opacity="1.000000" stroke="none" 
	d="
M185.387024,96.961845 
	C185.485825,95.516899 185.846802,93.833778 186.574951,92.053360 
	C186.511154,93.545265 186.080185,95.134460 185.387024,96.961845 
z"/>
<path fill="#3B72A5" opacity="1.000000" stroke="none" 
	d="
M168.985138,88.349976 
	C169.630966,89.112358 170.320267,90.203468 170.984360,91.676071 
	C170.315643,90.931274 169.672134,89.804993 168.985138,88.349976 
z"/>
<path fill="#3B72A5" opacity="1.000000" stroke="none" 
	d="
M168.981689,85.027344 
	C168.990646,85.784409 168.999603,86.541473 168.989594,87.677132 
	C168.335800,87.289513 167.700989,86.523300 166.934601,85.483971 
	C166.803040,85.210854 166.946777,85.058594 167.332092,85.015121 
	C168.138840,84.990211 168.560272,85.008781 168.981689,85.027344 
z"/>
<path fill="#1E73BB" opacity="1.000000" stroke="none" 
	d="
M187.628479,102.749619 
	C187.495285,103.631973 187.107178,104.739220 186.346771,105.907410 
	C186.440842,104.970406 186.907196,103.972466 187.628479,102.749619 
z"/>
<path fill="#3B72A5" opacity="1.000000" stroke="none" 
	d="
M170.946136,92.319183 
	C171.277054,92.489624 171.620361,92.965546 171.963669,93.753624 
	C171.628632,93.585403 171.293579,93.105042 170.946136,92.319183 
z"/>
<path fill="#3B72A5" opacity="1.000000" stroke="none" 
	d="
M122.921509,148.613525 
	C122.729568,148.884705 122.299515,148.938904 121.547165,149.013321 
	C121.038467,148.760132 121.024559,148.478287 121.345810,148.039978 
	C121.900116,148.060150 122.291763,148.228333 122.921509,148.613525 
z"/>
<path fill="#3B72A5" opacity="1.000000" stroke="none" 
	d="
M171.957077,94.315239 
	C172.269241,94.507790 172.608948,95.006126 172.940186,95.825729 
	C172.616013,95.638329 172.300308,95.129677 171.957077,94.315239 
z"/>
<path fill="#3B72A5" opacity="1.000000" stroke="none" 
	d="
M173.223206,97.258713 
	C173.494553,97.163391 173.712936,97.391373 173.904190,97.933502 
	C173.639771,98.036049 173.404160,97.814163 173.223206,97.258713 
z"/>
<path fill="#3B9ECA" opacity="1.000000" stroke="none" 
	d="
M142.990524,68.033966 
	C142.990524,68.033966 142.992020,68.531731 142.989441,68.780670 
	C142.681519,68.893982 142.376175,68.758354 141.949829,68.401970 
	C141.828812,68.181206 141.950928,68.052132 142.241058,68.017227 
	C142.531174,67.982315 142.990524,68.033966 142.990524,68.033966 
z"/>
<path fill="#1E73BB" opacity="1.000000" stroke="none" 
	d="
M188.976807,101.608109 
	C189.002472,101.987389 188.513962,102.000450 188.269745,102.005867 
	C188.155823,101.624290 188.286118,101.237297 188.665070,100.659882 
	C188.926208,100.722580 188.938675,100.975708 188.976807,101.608109 
z"/>
<path fill="#060508" opacity="1.000000" stroke="none" 
	d="
M675.137756,94.327309 
	C668.581360,94.330849 662.446228,94.330849 655.085205,94.330849 
	C659.008362,88.446014 662.408142,83.346252 666.131592,77.760994 
	C669.633972,82.895432 672.807983,87.470604 675.852051,92.130608 
	C676.157532,92.598328 675.675598,93.580399 675.137756,94.327309 
z"/>
<path fill="#3B72A5" opacity="1.000000" stroke="none" 
	d="
M127.012802,148.687073 
	C126.940224,148.835083 126.721451,148.856995 126.174149,148.840820 
	C126.185959,148.722153 126.526283,148.641556 127.012802,148.687073 
z"/>
<path fill="#51C6DD" opacity="1.000000" stroke="none" 
	d="
M92.041687,104.452194 
	C93.491844,103.079063 94.912132,102.090897 96.662399,101.049301 
	C96.395195,104.643860 95.662926,108.277031 95.260002,111.946350 
	C95.069283,113.683159 95.038254,115.712540 95.754318,117.220154 
	C97.596779,121.099281 97.629456,124.495171 94.995758,126.843895 
	C95.383911,130.412598 95.834892,133.239075 95.965614,136.080307 
	C96.146812,140.018829 95.234535,144.196747 98.971863,147.536102 
	C97.267197,147.932480 95.556053,147.947174 93.416122,147.940002 
	C92.956078,147.755829 92.983459,147.522095 92.885185,147.441422 
	C83.866905,140.039551 88.618423,130.428024 88.775826,121.573730 
	C88.798004,120.325951 90.029251,118.507240 89.544830,117.939926 
	C86.607826,114.500366 88.535286,113.124046 91.283844,112.413147 
	C91.554749,109.593880 91.783279,107.215523 92.041687,104.452194 
z"/>
<path fill="#4CB1D0" opacity="1.000000" stroke="none" 
	d="
M103.955505,96.579483 
	C103.724693,96.200134 103.726807,95.823082 103.756119,95.448166 
	C103.756935,95.437729 104.049149,95.450081 104.205482,95.451805 
	C104.201065,95.828568 104.196640,96.205330 103.955505,96.579483 
z"/>
<path fill="#5CD4E2" opacity="1.000000" stroke="none" 
	d="
M77.401039,147.999191 
	C74.452339,148.004959 71.901756,148.004959 69.351166,148.004959 
	C69.030373,147.523956 68.709579,147.042969 68.388786,146.561966 
	C71.375313,141.796799 74.361839,137.031616 77.643799,132.093979 
	C78.293304,133.767807 78.635811,135.616409 79.004021,137.459885 
	C79.649979,140.693848 80.311684,143.924683 80.974144,147.547653 
	C79.920715,147.956802 78.859940,147.975113 77.401039,147.999191 
z"/>
<path fill="#3498CB" opacity="1.000000" stroke="none" 
	d="
M143.358002,67.950798 
	C142.990524,68.033966 142.531174,67.982315 142.302002,67.952576 
	C140.243988,67.384361 138.415161,66.845894 135.898026,66.104767 
	C136.132355,63.083385 136.588745,59.850605 136.569717,56.620628 
	C136.554001,53.948734 135.674622,51.275345 135.716980,48.611187 
	C135.786346,44.249256 136.293411,39.894291 136.808533,35.266396 
	C138.139404,34.426670 139.277588,33.856930 140.753372,33.500404 
	C142.865189,38.294220 144.573761,34.576859 147.018524,33.805473 
	C146.584427,36.972351 145.690781,39.876312 144.382126,42.579357 
	C143.049225,45.332531 140.905640,47.986572 145.999390,48.997864 
	C146.167542,48.997990 146.335693,48.998119 146.756195,48.998672 
	C145.914185,55.288612 144.819824,61.578121 143.358002,67.950798 
z"/>
<path fill="#2280C1" opacity="1.000000" stroke="none" 
	d="
M169.313385,84.870544 
	C168.560272,85.008781 168.138840,84.990211 167.403961,84.938988 
	C166.490265,80.957489 163.570480,83.489090 161.376251,82.992203 
	C160.459488,82.824890 159.902084,82.655037 159.530914,82.170418 
	C161.144974,76.236992 162.572784,70.618340 164.000305,64.999847 
	C164.000000,65.000000 163.999390,65.000305 164.370911,64.999512 
	C165.728638,64.761055 166.714859,64.523384 167.799332,64.262032 
	C165.695374,59.503353 163.784851,55.182171 161.546585,50.119701 
	C163.835785,50.587551 164.926102,50.810383 166.016418,51.033211 
	C166.034225,51.450745 166.052032,51.868279 165.843491,52.782452 
	C166.664597,53.520229 167.712051,53.761372 168.759506,54.002510 
	C170.422363,57.453304 172.085205,60.904099 173.887848,64.673737 
	C173.684570,69.165825 173.661194,73.400108 172.880524,77.489830 
	C172.399094,80.011780 170.762848,82.313278 169.313385,84.870544 
z"/>
<path fill="#3B72A5" opacity="1.000000" stroke="none" 
	d="
M175.989731,147.932327 
	C178.690140,147.947449 181.390549,147.962570 184.539841,147.958099 
	C185.271515,148.048340 185.522980,148.207596 185.883575,148.587646 
	C177.637955,148.810791 169.251907,148.862595 160.393158,148.856750 
	C162.652603,148.520233 165.384750,148.241379 168.991882,147.966629 
	C171.907837,147.957932 173.948776,147.945129 175.989731,147.932327 
z"/>
<path fill="#2B87C5" opacity="1.000000" stroke="none" 
	d="
M164.000610,64.999695 
	C162.572784,70.618340 161.144974,76.236992 159.358719,81.928154 
	C154.781921,81.452278 154.432251,79.268303 154.788620,75.216232 
	C155.487061,67.274796 155.026154,59.228718 154.983307,51.226280 
	C154.969254,48.602604 154.764130,45.979958 154.324127,43.178787 
	C154.475830,40.440777 154.949829,37.880814 155.773407,35.133701 
	C157.461182,36.294155 158.799362,37.641762 160.424713,39.130440 
	C162.461960,42.951351 164.212036,46.631195 165.989258,50.672127 
	C164.926102,50.810383 163.835785,50.587551 161.546585,50.119701 
	C163.784851,55.182171 165.695374,59.503353 167.799332,64.262032 
	C166.714859,64.523384 165.728638,64.761055 164.369965,64.629837 
	C163.580765,63.322163 163.164017,62.383377 162.747253,61.444595 
	C162.230011,62.011581 161.712769,62.578568 161.195526,63.145550 
	C162.130554,63.763596 163.065582,64.381645 164.000610,64.999695 
z"/>
<path fill="#2895CA" opacity="1.000000" stroke="none" 
	d="
M146.005066,48.626171 
	C140.905640,47.986572 143.049225,45.332531 144.382126,42.579357 
	C145.690781,39.876312 146.584427,36.972351 147.018524,33.805473 
	C144.573761,34.576859 142.865189,38.294220 141.047012,33.357635 
	C142.093994,30.717901 143.184937,28.434149 144.637939,26.073292 
	C145.669495,27.484329 146.071152,29.184595 147.053467,30.425016 
	C152.132584,36.838680 152.164627,38.788074 147.048920,45.552250 
	C146.489639,46.291744 146.346756,47.346142 146.005066,48.626171 
z"/>
<path fill="#2B87C5" opacity="1.000000" stroke="none" 
	d="
M168.772827,53.826229 
	C167.712051,53.761372 166.664597,53.520229 165.844910,53.095921 
	C166.737381,52.972881 167.402069,53.033012 168.380920,53.200729 
	C168.695099,53.308315 168.786163,53.649948 168.772827,53.826229 
z"/>
<path fill="#227BBF" opacity="1.000000" stroke="none" 
	d="
M175.981384,147.516449 
	C173.948776,147.945129 171.907837,147.957932 169.428802,147.951187 
	C168.802460,136.486298 168.614182,125.040962 168.717621,113.295967 
	C170.705124,112.527641 172.400940,112.058975 175.222458,111.279190 
	C175.222458,116.937897 175.125977,122.394020 175.247528,127.845284 
	C175.390717,134.265915 175.722839,140.682343 175.981384,147.516449 
z"/>
<path fill="#2280C1" opacity="1.000000" stroke="none" 
	d="
M164.000305,64.999847 
	C163.065582,64.381645 162.130554,63.763596 161.195526,63.145550 
	C161.712769,62.578568 162.230011,62.011581 162.747253,61.444595 
	C163.164017,62.383377 163.580765,63.322163 163.998444,64.630630 
	C163.999390,65.000305 164.000000,65.000000 164.000305,64.999847 
z"/>
</svg>